<svg width="122" height="41" viewBox="0 0 122 41" fill="none" xmlns="http://www.w3.org/2000/svg">
<path d="M67.1238 26.0661L67.0592 10.034" stroke="#EB384D" stroke-width="2.59632" stroke-miterlimit="10"/>
<path d="M46.2803 26.0661L46.2156 10.034" stroke="#EB384D" stroke-width="2.59632" stroke-miterlimit="10"/>
<path d="M32.7738 26.0665C32.7738 26.0665 33.1193 16.3859 29.491 10.0313" stroke="#15BBCC" stroke-width="2.59632" stroke-miterlimit="10"/>
<path d="M4.78283 26.066C4.78283 26.066 5.12839 16.3853 1.5 10.0308L3.38139 14.0481C3.68535 14.696 4.1621 15.2539 4.77323 15.6445C5.22758 15.9359 5.79712 16.1622 6.42425 16.1126C8.01447 15.9886 8.94236 15.0896 9.24953 14.1504C9.5375 13.2732 9.5471 10.2757 9.4735 9.6867C9.4735 9.6867 9.59189 16.5155 12.8875 15.908C15.8216 15.3655 14.1354 9.58441 14.1354 9.58441" stroke="#15BBCC" stroke-width="2.59632" stroke-miterlimit="10"/>
<path d="M17.6091 25.859C17.6091 25.859 19.8585 19.1449 27.4448 16.1257C27.4448 16.1257 19.1674 18.8535 18.9978 14.6781C18.841 10.7724 23.3429 10.2299 25.5058 11.1753" stroke="#15BBCC" stroke-width="2.59632" stroke-miterlimit="10"/>
<path d="M40.8671 15.3096V23.9115C40.8671 25.7187 40.224 27.4855 39.0017 28.9486C38.2562 29.8383 37.1043 30.7248 35.7797 31.692" stroke="#EB384D" stroke-width="2.59632" stroke-miterlimit="10"/>
<path d="M72.5666 15.3096V23.9115C72.5666 25.7187 71.9235 27.4855 70.7012 28.9486C69.9557 29.8383 68.8038 30.7248 67.4791 31.692" stroke="#EB384D" stroke-width="2.59632" stroke-miterlimit="10"/>
<path d="M54.2575 13.7126L60.8775 20.126C62.5926 21.7875 61.3767 24.6269 58.9546 24.6269H50.1843" stroke="#EB384D" stroke-width="2.59632" stroke-miterlimit="10"/>
<path d="M105.654 24.5049C103.335 24.5049 101.447 22.676 101.447 20.4286C101.447 18.1813 103.335 16.3524 105.654 16.3524C107.974 16.3524 109.862 18.1813 109.862 20.4286C109.862 22.676 107.974 24.5049 105.654 24.5049Z" fill="#15BBCC"/>
<path d="M105.656 16.4254C107.937 16.4254 109.783 18.2171 109.783 20.4242C109.783 22.6312 107.934 24.4229 105.656 24.4229C103.378 24.4229 101.528 22.6312 101.528 20.4242C101.528 18.2171 103.374 16.4254 105.656 16.4254ZM105.656 16.2704C104.51 16.2704 103.432 16.7013 102.623 17.4887C101.813 18.2729 101.365 19.3175 101.365 20.4273C101.365 21.537 101.81 22.5816 102.623 23.3659C103.432 24.1501 104.51 24.5841 105.656 24.5841C106.801 24.5841 107.88 24.1532 108.689 23.3659C109.499 22.5816 109.947 21.537 109.947 20.4273C109.947 19.3175 109.502 18.2729 108.689 17.4887C107.88 16.7013 106.801 16.2704 105.656 16.2704Z" fill="#15BBCC"/>
<path d="M105.654 29.9508C101.201 29.9508 97.2906 27.0401 96.1515 22.874L96.1323 22.7996L98.6185 22.161L98.6376 22.2354C99.4792 25.3104 102.365 27.4586 105.654 27.4586C109.564 27.4586 112.822 24.3805 112.911 20.5956L112.915 20.5181L115.487 20.577L115.484 20.6545C115.423 23.1498 114.374 25.4871 112.527 27.2354C110.681 28.9868 108.24 29.9508 105.654 29.9508Z" fill="#EB384D"/>
<path d="M112.995 20.5982L115.407 20.6539C115.346 23.1307 114.306 25.4493 112.476 27.1821C110.643 28.918 108.221 29.8758 105.658 29.8758C101.239 29.8758 97.3642 26.9899 96.2315 22.8579L98.5641 22.2596C99.4152 25.3687 102.333 27.5417 105.661 27.5417C109.609 27.5355 112.902 24.4233 112.995 20.5982ZM112.841 20.4401L112.838 20.5951C112.748 24.3365 109.526 27.3836 105.661 27.3836C102.407 27.3836 99.5528 25.2602 98.7209 22.2162L98.6793 22.0675L98.5257 22.1077L96.1931 22.706L96.0396 22.7463L96.0811 22.8951C97.233 27.0953 101.172 30.0277 105.661 30.0277C108.269 30.0277 110.729 29.0544 112.591 27.2906C114.45 25.5299 115.509 23.171 115.57 20.6539L115.573 20.499L115.413 20.4959L113.001 20.4401H112.841Z" fill="#EB384D"/>
<path d="M107.647 32.8311L107.727 32.8187C113.937 31.8485 118.513 26.7152 118.606 20.6148V20.5374L121.178 20.5746V20.652C121.124 24.2044 119.77 27.6328 117.361 30.3079C114.977 32.9582 111.701 34.722 108.137 35.28L108.057 35.2924L107.647 32.8311Z" fill="#EB384D"/>
<path d="M118.684 20.614L121.096 20.6481C121.042 24.1818 119.695 27.5916 117.298 30.2543C114.928 32.8892 111.667 34.6467 108.122 35.2016L107.738 32.8954C113.99 31.9189 118.591 26.7547 118.684 20.614ZM118.527 20.459L118.524 20.614C118.431 26.6803 113.884 31.7794 107.712 32.7435L107.556 32.7683L107.581 32.9202L107.965 35.2264L107.991 35.3783L108.147 35.3535C111.731 34.7955 115.024 33.0193 117.42 30.3566C119.839 27.666 121.202 24.219 121.256 20.6512L121.26 20.4962L121.1 20.4931L118.687 20.459H118.527Z" fill="#EB384D"/>
<path d="M103.095 35.2657C99.5084 34.6892 96.2256 32.8913 93.8514 30.2007C91.4485 27.4822 90.1271 24.0104 90.1271 20.4239C90.1271 18.7377 90.4118 17.0824 90.9782 15.5046L91.0038 15.4302L93.4355 16.2454L93.4099 16.3198C92.9395 17.6372 92.7028 19.0166 92.7028 20.427C92.7028 26.5925 97.2527 31.8002 103.521 32.8107L103.601 32.8231L103.178 35.2812L103.095 35.2657Z" fill="#EB384D"/>
<path d="M91.0546 15.5296L93.3328 16.2922C92.8592 17.6158 92.6192 19.0076 92.6192 20.4242C92.6192 26.63 97.1979 31.8686 103.504 32.8854L103.111 35.1916C99.5433 34.6181 96.2796 32.8296 93.9151 30.1513C91.525 27.4452 90.2099 23.9921 90.2099 20.4273C90.2067 18.7472 90.4915 17.1012 91.0546 15.5296ZM90.9554 15.3344L90.9042 15.48C90.3379 17.0671 90.0499 18.7317 90.0499 20.4242C90.0499 24.0262 91.381 27.5165 93.7935 30.2505C96.1804 32.9536 99.4793 34.7607 103.085 35.3435L103.242 35.3683L103.268 35.2164L103.661 32.9102L103.687 32.7583L103.53 32.7335C97.3003 31.7322 92.7792 26.5556 92.7792 20.4273C92.7792 19.0293 93.016 17.6561 93.4831 16.348L93.5343 16.2023L93.384 16.1527L91.1058 15.3901L90.9554 15.3344Z" fill="#EB384D"/>
<path d="M92.9749 11.739L93.0228 11.677C95.5122 8.31064 99.3582 6.06639 103.575 5.51772L103.655 5.50842L103.998 7.97896L103.918 7.98826C100.401 8.44393 97.192 10.3193 95.1154 13.1277L95.0674 13.1897L92.9749 11.739Z" fill="#15BBCC"/>
<path d="M103.579 5.59198L103.899 7.90752C100.36 8.36629 97.132 10.251 95.0427 13.0811L93.0813 11.7203C95.5578 8.36939 99.3846 6.13755 103.579 5.59198ZM103.717 5.4184L103.557 5.44009C99.3174 5.99186 95.4522 8.2485 92.9501 11.6304L92.8573 11.7575L92.9885 11.8474L94.9499 13.2082L95.0811 13.2981L95.1738 13.171C97.2376 10.3781 100.428 8.51508 103.922 8.06251L104.082 8.04081L104.059 7.88583L103.739 5.57029L103.717 5.4184Z" fill="#15BBCC"/>
<path d="M105.662 40.7757C99.4416 40.7757 93.5799 38.1285 89.5739 33.5098L89.5227 33.4509L91.4905 31.8483L91.5417 31.9072C95.0549 35.9586 100.203 38.2835 105.662 38.2835C109.92 38.2835 113.92 36.9165 117.228 34.3313L117.289 34.2817L118.905 36.2221L118.844 36.2717C115.126 39.1762 110.445 40.7757 105.662 40.7757Z" fill="#EB384D"/>
<path d="M91.4804 31.9559C95.0096 36.026 100.18 38.3601 105.661 38.3601C109.939 38.3601 113.955 36.9869 117.276 34.3893L118.789 36.2088C115.087 39.104 110.426 40.6973 105.658 40.6973C99.4636 40.6973 93.621 38.0594 89.6311 33.4593L91.4804 31.9559ZM91.4996 31.7358L91.3781 31.835L89.5319 33.3384L89.4103 33.4376L89.5127 33.5554C93.5314 38.1896 99.4188 40.8492 105.661 40.8492C110.464 40.8492 115.161 39.2435 118.892 36.3266L119.017 36.2305L118.917 36.1096L117.404 34.2901L117.305 34.1692L117.18 34.2653C113.888 36.8412 109.904 38.1989 105.664 38.1989C100.231 38.1989 95.1056 35.8834 91.6084 31.8505L91.4996 31.7358Z" fill="#EB384D"/>
<path d="M86.9509 29.6825C85.4279 26.7997 84.6536 23.6844 84.6536 20.4234C84.6536 16.7781 85.6614 13.2009 87.5684 10.0763L87.61 10.0081L89.8242 11.2759L89.7826 11.3441C88.1092 14.0812 87.2261 17.2213 87.2261 20.4203C87.2261 23.2814 87.9044 26.0154 89.2386 28.5449L89.2738 28.6131L86.9861 29.7476L86.9509 29.6825Z" fill="#EB384D"/>
<path d="M87.6387 10.1169L89.7153 11.3072C88.0355 14.0567 87.1492 17.2092 87.1492 20.4237C87.1492 23.2972 87.8307 26.0436 89.1714 28.5823L87.0244 29.6455C85.5078 26.772 84.7366 23.6691 84.7366 20.4206C84.7366 16.7938 85.7381 13.229 87.6387 10.1169ZM87.5811 9.90607L87.5011 10.0394C85.5877 13.1732 84.5767 16.7659 84.5767 20.4237C84.5767 23.697 85.351 26.8247 86.8804 29.7168L86.954 29.8563L87.098 29.785L89.245 28.7218L89.3889 28.6505L89.3154 28.511C87.9843 25.994 87.3124 23.2724 87.3124 20.4237C87.3124 17.2371 88.1923 14.1125 89.8561 11.3847L89.9361 11.2514L89.7985 11.1739L87.7219 9.98356L87.5811 9.90607Z" fill="#EB384D"/>
<path d="M119.418 8.54219C117.591 6.55833 115.3 4.96813 112.788 3.9483L112.714 3.91731L113.709 1.62036L113.783 1.65136C116.643 2.81378 119.254 4.62406 121.334 6.88381L121.389 6.9427L119.469 8.60109L119.418 8.54219Z" fill="#15BBCC"/>
<path d="M113.75 1.72363C116.55 2.86125 119.151 4.63123 121.273 6.93747L119.471 8.49357C117.587 6.44461 115.283 4.88541 112.813 3.88108L113.75 1.72363ZM113.664 1.51904L113.603 1.66163L112.669 3.81599L112.608 3.95858L112.755 4.01747C115.254 5.0342 117.536 6.6151 119.356 8.59276L119.462 8.70745L119.58 8.60516L121.382 7.04907L121.5 6.94677L121.394 6.83208C120.342 5.68826 119.151 4.65603 117.859 3.76329C116.592 2.88915 115.232 2.1545 113.811 1.57794L113.664 1.51904Z" fill="#15BBCC"/>
<path d="M119.568 5.18442L104.688 19.6003L106.507 21.3626L121.387 6.94668L119.568 5.18442Z" fill="#15BBCC"/>
<path d="M119.568 5.29473L121.274 6.94692L106.507 21.2525L104.802 19.6003L119.568 5.29473ZM119.568 5.07465L119.456 5.18314L104.69 19.4887L104.578 19.5972L104.69 19.7057L106.395 21.3578L106.507 21.4663L106.619 21.3578L121.386 7.05231L121.497 6.94382L121.386 6.83533L119.68 5.18314L119.568 5.07465Z" fill="#15BBCC"/>
<path d="M96.214 17.7785L96.2364 17.7041C96.8283 15.7791 98.0698 14.0494 99.7304 12.8281C101.449 11.5696 103.5 10.9031 105.659 10.9031C107.534 10.9031 109.352 11.4115 110.92 12.3755L111.003 12.4282L109.128 14.2447L109.077 14.2168C108.037 13.6775 106.856 13.3923 105.663 13.3923C102.476 13.3923 99.612 15.4567 98.7033 18.4139L98.6809 18.4883L96.214 17.7785Z" fill="#EB384D"/>
<path d="M105.654 10.9764C107.532 10.9764 109.331 11.491 110.87 12.4364L109.107 14.1444C108.06 13.6019 106.88 13.3105 105.654 13.3105C102.432 13.3105 99.5366 15.3967 98.6183 18.388L96.3081 17.7215C96.8937 15.8121 98.1255 14.0948 99.7733 12.8859C101.479 11.6398 103.511 10.9764 105.654 10.9764ZM105.654 10.8214C103.475 10.8214 101.408 11.4941 99.6773 12.7619C98.0007 13.9925 96.7497 15.7377 96.1545 17.6781L96.1097 17.8269L96.2633 17.8703L98.5735 18.5368L98.7271 18.5802L98.7719 18.4314C99.671 15.5083 102.503 13.4655 105.654 13.4655C106.835 13.4655 108.003 13.7476 109.03 14.2808L109.135 14.3335L109.219 14.2529L110.982 12.5449L111.122 12.4085L110.953 12.3062C109.375 11.336 107.542 10.8214 105.654 10.8214Z" fill="#EB384D"/>
<path d="M113.189 10.211C111.394 8.96485 109.282 8.18061 107.081 7.94812L107.001 7.93883L107.279 5.4621L107.359 5.4714C110.136 5.76588 112.782 6.78261 115.009 8.41309L115.083 8.46579L113.243 10.2482L113.189 10.211Z" fill="#EB384D"/>
<path d="M107.348 5.5483C110.138 5.84278 112.753 6.85951 114.957 8.47449L113.232 10.1453C111.431 8.89296 109.326 8.10562 107.086 7.86694L107.348 5.5483ZM107.208 5.37781L107.192 5.5328L106.929 7.85454L106.913 8.00953L107.073 8.02502C109.262 8.25751 111.361 9.03556 113.143 10.2755L113.252 10.353L113.348 10.26L115.072 8.58919L115.203 8.46209L115.056 8.3536C112.82 6.71382 110.161 5.69089 107.368 5.39641L107.208 5.37781Z" fill="#EB384D"/>
<path d="M89.9294 6.93268L89.9838 6.87378C93.9642 2.55577 99.6756 0.0790405 105.649 0.0790405C107.982 0.0790405 110.286 0.454115 112.497 1.19497L112.577 1.22286L111.633 3.54151L111.559 3.51671C109.649 2.89055 107.662 2.57127 105.653 2.57127C100.408 2.57127 95.3976 4.74422 91.9036 8.53527L91.8492 8.59416L89.9294 6.93268Z" fill="#EB384D"/>
<path d="M105.649 0.154989C107.995 0.154989 110.295 0.539363 112.468 1.26471L111.582 3.44077C109.687 2.81771 107.684 2.49223 105.649 2.49223C100.383 2.49223 95.3497 4.67448 91.8397 8.48102L90.0415 6.92493C94.009 2.62242 99.698 0.154989 105.649 0.154989ZM105.649 0C99.6532 0 93.9195 2.48603 89.9231 6.82264L89.8175 6.93733L89.9359 7.03962L91.7341 8.59572L91.8525 8.69801L91.9581 8.58332C95.4393 4.81087 100.428 2.64722 105.649 2.64722C107.652 2.64722 109.63 2.9634 111.53 3.58956L111.674 3.63605L111.729 3.49966L112.615 1.32361L112.676 1.17172L112.519 1.11902C110.302 0.375075 107.991 0 105.649 0Z" fill="#EB384D"/>
</svg>
