<svg width="16" height="15" viewBox="0 0 16 15" fill="none" xmlns="http://www.w3.org/2000/svg">
<path d="M14.9727 8.47424H8.49219L12.8125 12.8219C12.9766 12.986 13.25 12.986 13.4141 12.8219C14.4805 11.8375 15.2188 10.4977 15.4102 8.96643C15.4648 8.72034 15.2461 8.47424 14.9727 8.47424ZM14.5352 6.72424C14.3164 3.44299 11.7188 0.845337 8.4375 0.626587C8.19141 0.599243 8 0.817993 8 1.06409V7.16174H14.0977C14.3438 7.16174 14.5625 6.97034 14.5352 6.72424ZM6.6875 8.47424V1.99377C6.6875 1.74768 6.44141 1.52893 6.19531 1.55627C2.91406 2.02112 0.425781 4.86487 0.5625 8.28284C0.671875 11.7828 3.67969 14.6539 7.20703 14.5992C8.57422 14.5992 9.85938 14.1617 10.8984 13.3961C11.1172 13.2594 11.1172 12.9313 10.9258 12.7399L6.6875 8.47424Z" fill="#B3B3B3"/>
</svg>
