<svg id="alaeddin" xmlns="http://www.w3.org/2000/svg" xmlns:xlink="http://www.w3.org/1999/xlink" viewBox="0 0 1968.38 500.95"><defs><style>.cls-1{fill:#652667;}.cls-2{fill:#fcfbfb;}.cls-3{isolation:isolate;}.cls-4{fill:url(#linear-gradient);}.cls-5{fill:url(#linear-gradient-2);}.cls-6{fill:url(#linear-gradient-3);}</style><linearGradient id="linear-gradient" x1="1638.67" y1="158.38" x2="2121.3" y2="158.38" gradientUnits="userSpaceOnUse"><stop offset="0" stop-color="#743d07"/><stop offset="0.06" stop-color="#966926"/><stop offset="0.13" stop-color="#b69344"/><stop offset="0.2" stop-color="#d0b55c"/><stop offset="0.27" stop-color="#e5d06f"/><stop offset="0.34" stop-color="#f3e37c"/><stop offset="0.42" stop-color="#fcee84"/><stop offset="0.5" stop-color="#fff287"/><stop offset="1" stop-color="#743d07"/></linearGradient><linearGradient id="linear-gradient-2" x1="1637.18" y1="434.16" x2="2118.29" y2="434.16" xlink:href="#linear-gradient"/><linearGradient id="linear-gradient-3" x1="1610.47" y1="375.87" x2="2121.3" y2="375.87" xlink:href="#linear-gradient"/></defs><title>alaeddin</title><path class="cls-1" d="M1367.33,299.8c-19.8-9.92-34.44-24-43.83-43.24-19-39-7-85.76,28.42-110.26,37.37-25.84,85-21.56,115.59,10.22,3.35,3.48,4,5.7.07,9.3-8.55,7.78-16.73,16-24.92,24.16-2.81,2.81-4.57,2.89-8,.24-19.06-14.62-41.35-15.13-59.81-1.95-17.89,12.77-25.43,36.4-17.87,58.28,4.67,13.52,14.82,22.18,27.73,27.84,16.11,7.06,32.53,6.08,48.79,1.29,20.19-5.95,40.14-12.67,60.2-19,13.12-4.14,26.89-3.6,40.34-5.31,2.62-.33,7-.49,7.14,3.62.15,3.66-3.76,3.3-6.35,3.77-24.78,4.58-47.35,14.76-69.45,26.49-38.54,20.46-75.9,43.5-118.33,55.69-23.7,6.81-47.62,9.28-71.77,2.51-3.37-.95-5.17.17-7,2.47-25.33,31.51-69.15,37.05-101.6,17.79-3.49-2.07-5.58-.4-8.18,1a87.08,87.08,0,0,1-31.93,10.67c-2.3.28-5.58,1.53-6.32-1.78-.62-2.83,2.68-2.89,4.59-3.62a74.85,74.85,0,0,0,23-14.29c2.27-2,3.74-3.58,1.06-6.72-19.75-23.11-26.88-50.66-27.69-80.33-1.22-45,3.2-89.2,16.63-132.34,1.49-4.78,3.91-7.16,8.78-8.31,10.45-2.48,20.82-5.36,31.07-8.54,4.33-1.35,6.39-.77,7.85,3.81,15.52,48.86,27.76,98.24,23.68,150.16-2.24,28.42-10.2,54.68-30.53,75.89-2.14,2.24-3.82,3.78.5,5.93,22.07,11,58.09,2.74,72.47-16.76,1.86-2.52,3.73-4.54.14-7.52-20.87-17.3-30-41-32.53-66.73-5.59-56.23.85-111.67,14.37-166.4,1.13-4.56,3.13-6.84,7.92-7.92a306.6,306.6,0,0,0,30.23-8.35c6.13-2.06,8.25-.16,9.68,5.6,5.78,23.34,11.17,46.63,14.41,70.62,3.14,23.22,6.13,46.34,5.75,69.68-.56,34.39-4.17,68.37-20.54,99.58-1.79,3.42-1.42,5.09,2.56,5.44,4.93.43,9.9,1.48,14.78,1.19C1325.76,332.06,1347.2,318.29,1367.33,299.8ZM1147,144.61a54.79,54.79,0,0,0-2.39,5.67c-10.7,39.36-15.75,79.4-12.73,120.14,1.78,24.12,7.21,47.29,22.74,67,4.34,5.51,6.31,4.55,9.79-.67,12.82-19.21,17.55-40.66,17.38-63.22-.18-25.34-5.11-50-12.34-74.29C1163.93,180.6,1156.08,163,1147,144.61Zm94.07-36.69c-2.09,11.58-4.27,23.15-6.26,34.75-5.87,34.31-9.91,68.82-7.3,103.67,2,27.22,7.29,53.45,28.35,73.62,4.37,4.18,6,3.29,7.94-1.61a145.22,145.22,0,0,0,9.55-44.9c1.74-28.74-1.86-57.09-7.45-85.13C1260.48,160.94,1252.66,134.15,1241.11,107.92Z" transform="translate(-152.92 -49.52)"/><path class="cls-1" d="M883.89,341.79c25.18,12.58,50.41,20.45,78.34,13.55,5.42-1.34,8.11-2.67,4.22-9.17-15-25-17.55-53.15-18.62-81.36-1.64-43.07,4.47-85.24,16.21-126.67,1.64-5.79,4.47-8.63,10.29-9.93a262.85,262.85,0,0,0,28.68-7.92c6.08-2.11,8.11-.13,9.69,5.4,6.08,21.16,12.41,42.18,16.53,63.93,4.21,22.23,8,44.41,7.6,67-.37,22.78-3.79,45.17-12.6,66.4-4.71,11.36-12.12,20.93-20.78,29.59-1.29,1.29-3.71,2.35-3.21,4.42.64,2.65,3.6,2.12,5.59,2.55,22.14,4.84,46.66-7.24,59.06-29.13,12.68-22.38,15.58-47,15-72-1.24-55.47-12.63-108.87-35.18-159.68-2.31-5.21-1-6.51,3.72-7.73,10.42-2.64,20.76-5.59,31.07-8.61,4-1.18,6.21-1,7.66,4,19.26,65.11,27.28,131.16,15.61,198.57-4.79,27.68-15.39,53.26-37.63,71.82-23.28,19.42-49.25,25-77.58,10.93-2.08-1-3.86-1.65-6.2-.68-33.67,14-67.54,9.4-101.45,1-35.29-8.79-67.67-24.88-100.43-40-22.3-10.31-45.07-19.36-68.78-25.9-13.38-3.69-26.94-5.74-40.88-4.55-1.92.16-5,1.68-5.31-1.75-.28-2.83,2.56-3.05,4.74-3.42,22.77-3.88,45.43-4.71,68.08,1.23,25.88,6.79,50.21,18.43,76.36,24.33,21.94,4.94,43.36,5,62.68-8.69,22.74-16.13,27.59-46.13,11.33-68.73-15.9-22.1-48.21-27.27-69.66-10.51-5.11,4-7.86,3.69-12-.63-7.43-7.76-15.19-15.22-23-22.55-3.3-3.08-3.55-5-.28-8.6,37.92-41.77,104.84-36.25,137.06,9.64,30.83,43.9,17.09,105.57-33.07,132.05C886,340.25,885.37,340.78,883.89,341.79Zm89.49-196.54C962,188.3,955.65,229.59,958,271.79c1.31,24,5.12,47.63,18.65,68.61,3.55,5.51,5.8,5.17,9.85,1.1,12.42-12.5,18.3-28,20.8-45,5.34-36.15-2-70.77-13.52-104.77A274.64,274.64,0,0,0,973.38,145.25Z" transform="translate(-152.92 -49.52)"/><path class="cls-1" d="M430.79,373.62c-55.72-.2-106.67-17.57-155.42-43-31.57-16.48-61.2-36.19-91.62-54.6-8.48-5.13-17.16-9.94-25.75-14.89-2.35-1.35-5.68-2.36-5-5.71s4.16-3.18,6.85-3.36c28.66-1.94,55.95,3.63,82.13,15.16,36.57,16.1,72.53,33.7,110.64,46.06,92.6,30,180.33,17.14,262.94-32.21,51.64-30.85,96.25-71.13,141.23-110.73q31.31-27.56,63.06-54.62c18.93-16.21,40.33-19.14,63.48-16.66,21.31,2.28,40.86,8.93,56.42,24.7,4,4.09,5.09,6.89-.16,11.11A252.81,252.81,0,0,0,917.66,155c-4,4.11-6.57,4.43-11.5.73-32.3-24.24-78.71-25.31-111.41-2.39-17.23,12.08-30.91,28.22-45.6,43.13-27.29,27.69-54.42,55.55-84.4,80.37-43.8,36.26-90.85,67-146,83.55C490.11,369,460.82,373.74,430.79,373.62Z" transform="translate(-152.92 -49.52)"/><path class="cls-1" d="M549.38,487.83c-10.62.36-16,2.61-22.34,11.64-11.89,17-25.31,32.83-44.18,42.72-14.94,7.84-30.74,10.61-47.24,6.13-13.17-3.57-21.77-12.49-26.78-25-.91-2.25-2.24-4.84,0-6.93,2.54-2.39,4.57,0,6.52,1.34,29.32,19.64,57.38,17.56,84.5-5.93,20.41-17.68,35.7-39.71,52.5-60.48,8.84-10.93,17.8-21.78,27.13-32.29,14.27-16.08,32.5-20.81,53.27-17.43,4.44.72,8.62,2.14,12,5.21,2.62,2.42,4.13,5.47,1.53,8.76s-5.8,2.76-8.9.89c-14.34-8.64-14.51-8.72-19.77,7.35-9.77,29.85-19.31,59.79-28.95,89.69a56.39,56.39,0,0,0-2.14,13.85c-.38,5.86-4,8.92-9.64,9.17-4.94.21-9.91-.34-14.87-.4-6.56-.08-8.24-3.29-6.15-9.13,3.69-10.33,7.1-20.77,11.15-31,2.47-6.22,2-9.24-5.64-8.28C558.06,488.17,554.7,487.83,549.38,487.83Zm44-68.22-2.8-1.56c-18.5,18-32.44,39.64-48.37,61.48,11.28,0,21.63,2.7,29-.82,6.45-3.06,8.34-13.79,10.8-21.9" transform="translate(-152.92 -49.52)"/><path class="cls-1" d="M853.45,516.38c3.84-24,14.91-45.48,37-60.05,7.88-5.19,17.09-6.94,26-2.32,4.76,2.47,5.89,1.08,7-3.36,3.62-14.14,7.86-28.12,11.26-42.3,1.23-5.12,3.57-6.42,8.46-6.31,19.75.46,19-2.75,12.73,17.11q-15,47.67-29.32,95.54c-1.32,4.38-4.07,9.21,2.74,12.7,3.34,1.72.16,4.32-2,5.41a57.61,57.61,0,0,1-18.89,5.71c-4.53.58-7.65-1.38-7.52-7.14.1-4.49,1.43-8.54,2.45-12.73.39-1.6,1.85-2.73-.29-4.36-1.84-1.4-3.33.7-4.36,2.63-3.81,7.11-9.47,12.64-16,17.16-5.89,4-12.41,6.51-19.37,2.8C856,532.93,853.84,525.93,853.45,516.38Zm61.3-43.81c-.06-5.68-1-10.35-6-12.51s-8.34,1.14-10.94,5c-10.55,15.49-16.68,32.68-19.27,51.16-.39,2.78,0,5.76,3.1,7,2.85,1.1,4.71-1.07,6.34-2.86,7.62-8.41,13.86-17.84,19.56-27.6C911.31,486.26,914.32,479.46,914.75,472.57Z" transform="translate(-152.92 -49.52)"/><path class="cls-1" d="M720.93,514.79c-6.59.87-8.78,6.11-11.12,9.94-4.44,7.28-11.3,10.35-18.44,12.71-10.67,3.53-21-3.69-20.22-14.8,2.08-28.76,14.33-52.33,39.42-67.69,7.71-4.72,16.86-5.57,25,.31,2.72,2,4.22,1.91,5.66-1.05.87-1.8,2.08-3.37,4.3-3.33,5.12.11,11.35-2.44,15,1.24,2.66,2.69-1.28,7.62-2.63,11.39-6.2,17.38-11.56,35-16.63,52.76-1,3.65-2.45,7,2.36,9.88,4.36,2.6,1.56,5.83-1.38,7.63a31.32,31.32,0,0,1-18.15,4.52c-4.44-.25-7.17-2.75-6.83-8.36C717.57,524.74,720,520.23,720.93,514.79Zm-26.24-2c.06,3.64-.73,6.93,2.67,8.73,2.1,1.11,3.83-.19,5.13-1.55,12.63-13.18,24.46-26.89,28-45.63,1-5.54.31-10.65-5.66-13.08-5.49-2.24-9.05,1.5-11.81,5.17A94,94,0,0,0,694.69,512.81Z" transform="translate(-152.92 -49.52)"/><path class="cls-1" d="M1058.44,479.64c5.13-5.52,10.7-10.7,15.26-16.66,4.27-5.56,9.89-8.29,16.13-10.2,13.71-4.2,22.71,4.12,19.19,18-2,7.72-4.76,15.23-7.32,22.79s-5.33,15.05-7.9,22.62c-1.24,3.66-2.65,7.34,2,10.11,2.64,1.57,1.72,4.08-.24,5.44-6.72,4.69-14.57,7.62-22.46,6.29-6.32-1.06-5.46-7.43-3.91-12.29,4.1-12.85,8.54-25.59,12.77-38.4q2.19-6.66,4-13.45c.49-1.87.46-3.9-1.46-5.2s-3.83-.4-5.27.85a106.35,106.35,0,0,0-9.62,9c-13.22,14.71-23.42,31.18-29.09,50.31-2,6.64-17,11.39-22.43,7.23-3.06-2.35-.54-5.13.27-7.45,5.86-16.9,12.06-33.69,17.82-50.62,1.57-4.6,5.12-9.6-.39-14.36-.77-.66-.45-3.25.1-4.65,2.73-7,20.66-10.29,25.44-4.52,1.92,2.32,4.35,4.48,1.55,9S1057.06,473.17,1058.44,479.64Z" transform="translate(-152.92 -49.52)"/><path class="cls-1" d="M670.27,402.15c2.47,0,3.86.14,5.22,0,7-.87,7.09,2.25,5.1,7.72-10.23,28.19-20.23,56.46-30.32,84.71-2.69,7.51-5.42,15-8.12,22.52-1.3,3.61-2,6.43,3,8.45,5.27,2.13,4.52,5.71-.23,8.19-6.23,3.27-13.1,4.43-20,4.45-6.29,0-9.57-6.23-7.16-13.57,5.66-17.26,11.6-34.42,17.51-51.6,6.89-20,14.28-39.92,20.59-60.14C658.5,404.42,661.24,401.45,670.27,402.15Z" transform="translate(-152.92 -49.52)"/><path class="cls-1" d="M824.55,452.81c17.58.18,23.88,11.2,15.1,25.45-7.81,12.68-20.94,17.34-34.56,20.6-9.58,2.29-12.36,6.8-9.86,17.14,1.79,7.41,7.54,10.35,16.15,8.26,5.28-1.28,9.38-4.51,13.32-8,1.82-1.62,3.6-2.4,5.81-.49,1.62,1.4,1.46,2.79.5,4.34-8,12.93-35.71,24.55-50.29,15.32-6.64-4.21-10-9.92-10.46-17.34-1.51-26.23,18.41-55.43,43.23-64.05A24.89,24.89,0,0,1,824.55,452.81Zm-26.19,39.58c11.2-2.22,19.15-6.76,22.17-17.26,1.27-4.39,3.31-9.91-2.07-12.45-4.89-2.31-7.86,2.49-10.37,6C803.21,475.38,800.36,483.05,798.36,492.39Z" transform="translate(-152.92 -49.52)"/><path class="cls-1" d="M1326.18,521.79c-4.22,3.73-8.72,7.2-12.6,11.26-5,5.3-11.1,6-17.19,3.65-6.69-2.6-7.91-8.81-6.88-15.25,2.76-17.17,10.15-32,23.66-43.2,7.33-6.07,15.73-9.39,25.15-4.23,2,1.09,3.35,1.4,4.86-.58,1.92-2.51,4.79-2.1,7.55-2.37,6.33-.62,8.46.79,6,7.71-4.78,13.18-8.67,26.68-12.85,40.08-.8,2.55-2.29,5.31-.3,7.86s4.54,4.93.57,7.43c-5,3.15-10.81,5.17-16.45,3-3.34-1.32-2.81-5.46-1.79-8.84C1326.53,526,1327.63,523.63,1326.18,521.79Zm-18.69-2.12a4.46,4.46,0,0,0,2.24,4.89c1.78,1,3.3-.21,4.38-1.36,8.82-9.54,17.14-19.46,20.36-32.47,1.09-4.42,1.25-9.25-3.88-11.36-4.84-2-7.75,1.87-10.15,5.15C1313.17,494.49,1309,505.74,1307.49,519.67Z" transform="translate(-152.92 -49.52)"/><path class="cls-1" d="M971.76,538.57c-7.89.07-10.56-3.16-8.08-10.92,5.47-17,11.37-34,17-51,1.4-4.25,4-8.61-2.82-11.54-3.65-1.57-2.54-5.17.68-7.11,7-4.21,14.78-6.69,22.79-6.33,7.19.32,7.78,6.26,6.08,11.75-3.74,12.1-7.94,24.06-12,36.06-1.87,5.48-4.11,10.83-5.77,16.36-1.12,3.72-3.33,7.67,2.57,10.37,3.45,1.57.76,4.29-1.16,5.76A33.15,33.15,0,0,1,971.76,538.57Z" transform="translate(-152.92 -49.52)"/><path class="cls-1" d="M220.6,124.8c24.07.06,42.81,19,42.74,43.27A42.92,42.92,0,0,1,220,211c-23.69,0-42.83-19.46-42.7-43.43S196.38,124.74,220.6,124.8ZM220,203c19.29.19,35.47-15.68,35.54-34.84a35.81,35.81,0,0,0-34.84-35.77c-19-.42-35.75,16.45-35.67,35.88C185.07,186.93,201.11,202.85,220,203Z" transform="translate(-152.92 -49.52)"/><path class="cls-1" d="M1446.91,537.85c-13.4.06-19.86-6.78-19-20,1.46-21.58,18.32-41.8,38.12-45.56,5.79-1.11,12-1.88,15.63,4,3.71,6.08,1.92,12.36-2.21,17.69-6.43,8.29-15.51,12.33-25.54,13.68-7.49,1-7.93,5.65-7.26,11.17.75,6.16,4.15,9.3,10.74,8.4,4.63-.62,8.09-3.24,11.55-6,1.33-1.05,2.8-2.07,4.39-.71,2.06,1.77.64,3.28-.5,5C1468.25,532.13,1456.51,537.81,1446.91,537.85Zm20-51.62c.16-2.26,0-4.5-2.17-5.79-2.34-1.37-4.16,0-5.79,1.58-4.84,4.79-7,11-9,17.26-.9,2.9.81,3.08,3.2,2.61C1459.91,500.57,1466.39,493.29,1466.92,486.23Z" transform="translate(-152.92 -49.52)"/><path class="cls-1" d="M1533.7,433.86c6.45-1.25,8.09.84,5.27,8.38-9.64,25.75-18.64,51.75-27.81,77.68-.87,2.44-2.77,5.34.54,7.35,7,4.22,2.45,6.39-1.54,8.13a30.17,30.17,0,0,1-8.8,2c-8.72.93-12.07-2.85-9.25-11.24C1502,497,1512.24,468,1522,438.74,1524.08,432.54,1528.54,434.22,1533.7,433.86Z" transform="translate(-152.92 -49.52)"/><path class="cls-1" d="M1215,451.88c8.65-.08,9.21.79,5.71,8.82-.55,1.26-1.17,2.49-1.68,3.77-1.43,3.51-4.68,7.67-3.75,10.41,1.08,3.22,6.3.87,9.69,1.32,2,.26,4.06.27,4,3-.08,2.24-1.57,3.38-3.68,3.78a1.93,1.93,0,0,1-.81.09c-14.23-3.89-16,6.89-19.13,16.16-2.31,6.76-4.88,13.44-7.33,20.16-1.28,3.5-1.36,6.33,3.06,7.81,6.3,2.1,3.17,5-.23,6.18-6.52,2.32-13.78,7.82-20.16,2.9s-1.26-12.21.62-18.22c3-9.44,6.27-18.78,9.7-28.06,1.69-4.56,1.93-7.38-4.33-6.86-2.12.17-5.6,1-5.55-2.93s3.11-4.38,6-3.83c7.45,1.41,10.42-2.69,12-9a64.94,64.94,0,0,1,2.31-6.18C1204.8,452,1204.8,452,1215,451.88Z" transform="translate(-152.92 -49.52)"/><path class="cls-1" d="M1365.74,526.53c1-9.3,6.61-18.29,9.92-28.06,1.14-3.37,2.45-6.68,3.62-10,.63-1.82,1.32-3.68.3-5.58s-6.72-2.65-2-5.71c5-3.18,10.42-6.86,16.78-4.76,3.94,1.3,4.57,5.33,3.89,9.07-2,10.64-6.85,20.3-10.48,30.38-1.5,4.13-6.17,9.77-1.88,12.54,3.8,2.45,6.63-4.31,9.48-7.29a76.21,76.21,0,0,0,19-33.3,59.75,59.75,0,0,1,2.72-7.78c1.17-2.81,3.93-3.13,6.28-2.63,3,.64,2.48,3.41,1.66,5.4-9.37,22.74-21.79,43.37-43.18,56.8C1373.18,541.07,1365.51,536.83,1365.74,526.53Z" transform="translate(-152.92 -49.52)"/><path class="cls-1" d="M1258.35,486.84c5-6.54,9-11.29,14.82-14,4.55-2.11,8.72-1.67,11.89,2.31,2.74,3.43,2.14,7.25,0,10.81-2.64,4.28-6.43,5.13-10.62,2.7-4.94-2.87-8,.07-10.52,3.35-7.06,9-12.61,18.83-14.86,30.3-2.68,13.66-4.61,15.1-16,14.37-4.12-.27-5.25-1.33-3.9-5.52,4.05-12.57,7.92-25.22,11.46-37.95,1.12-4.06,4.67-8.9-1.39-12.44a2.27,2.27,0,0,1-.47-2.14c3.64-4.63,9-6.58,14.38-7,5.25-.38,5.78,4,5.61,8.17C1258.64,481.48,1258.54,483.11,1258.35,486.84Z" transform="translate(-152.92 -49.52)"/><path class="cls-1" d="M727.5,146.79c-3.19-2.55-6.45-5-9.54-7.67-14.94-12.86-14.76-28.51.25-41.31,2.55-2.17,4.33-2.71,6.92-.16,6,6,12.16,11.88,18.53,17.49,3.33,2.93,2.62,4.35-.66,6.62a85.12,85.12,0,0,0-10.58,9.08C728.06,135.08,725.61,140,727.5,146.79Z" transform="translate(-152.92 -49.52)"/><path class="cls-1" d="M730.5,414.37c-7.55-3.21-11.16-7.05-15-10.54-14-12.88-10-28.34,3.92-40.17,1.86-1.58,3.17-1.37,4.88.29,6.51,6.3,13.06,12.56,19.76,18.64,2.83,2.58,1.67,4-.8,5.65a46.39,46.39,0,0,0-11.69,10.26C728.36,402.71,725.12,406.94,730.5,414.37Z" transform="translate(-152.92 -49.52)"/><path class="cls-1" d="M768.46,412.22c-16.53-9.31-22.39-19-19.38-32.69,1.56-7.09,7.12-11.94,12.47-16.52,2.17-1.85,3.46.51,4.75,1.7,6,5.61,11.85,11.46,18,16.91,3.53,3.11,2.95,4.74-.65,7.37C776,394.62,767.53,400,768.46,412.22Z" transform="translate(-152.92 -49.52)"/><path class="cls-1" d="M1140.11,537.57c-4.41-4-7.95-6.61-10.75-9.86-6.39-7.41-4.28-19.28,3.82-24.59,2.54-1.67,4-.56,5.67,1.05,3.55,3.42,7,7,10.72,10.19,3.08,2.66,2.12,4-.73,6.11C1143.73,524.3,1138,528.07,1140.11,537.57Z" transform="translate(-152.92 -49.52)"/><path class="cls-1" d="M1003.06,442.1c-4-3.74-7.23-6.27-9.85-9.32-6.37-7.45-4.41-19.17,3.85-24.41a6.49,6.49,0,0,1,2.16-1.06c1.12-.21,16.17,13.42,16.14,14.64-.08,2.6-2.52,3.3-4.1,4.62C1004.32,432.37,1003.94,433,1003.06,442.1Z" transform="translate(-152.92 -49.52)"/><path class="cls-2" d="M1147,144.61c9,18.36,16.89,36,22.45,54.64,7.23,24.26,12.16,48.95,12.34,74.29.17,22.56-4.56,44-17.38,63.22-3.48,5.22-5.45,6.18-9.79.67-15.53-19.72-21-42.89-22.74-67-3-40.74,2-80.78,12.73-120.14A54.79,54.79,0,0,1,1147,144.61Z" transform="translate(-152.92 -49.52)"/><path class="cls-2" d="M1241.11,107.92c11.55,26.23,19.37,53,24.83,80.4,5.59,28,9.19,56.39,7.45,85.13a145.22,145.22,0,0,1-9.55,44.9c-1.93,4.9-3.57,5.79-7.94,1.61-21.06-20.17-26.32-46.4-28.35-73.62-2.61-34.85,1.43-69.36,7.3-103.67C1236.84,131.07,1239,119.5,1241.11,107.92Z" transform="translate(-152.92 -49.52)"/><path class="cls-2" d="M973.38,145.25a274.64,274.64,0,0,1,20.36,46.5c11.51,34,18.86,68.62,13.52,104.77-2.5,17-8.38,32.48-20.8,45-4.05,4.07-6.3,4.41-9.85-1.1-13.53-21-17.34-44.57-18.65-68.61C955.65,229.59,962,188.3,973.38,145.25Z" transform="translate(-152.92 -49.52)"/><path class="cls-2" d="M914.75,472.57c-.43,6.89-3.44,13.69-7.21,20.14-5.7,9.76-11.94,19.19-19.56,27.6-1.63,1.79-3.49,4-6.34,2.86-3.14-1.22-3.49-4.2-3.1-7,2.59-18.48,8.72-35.67,19.27-51.16,2.6-3.83,5.79-7.17,10.94-5S914.69,466.89,914.75,472.57Z" transform="translate(-152.92 -49.52)"/><path class="cls-2" d="M694.69,512.81A94,94,0,0,1,713,466.45c2.76-3.67,6.32-7.41,11.81-5.17,6,2.43,6.7,7.54,5.66,13.08-3.53,18.74-15.36,32.45-28,45.63-1.3,1.36-3,2.66-5.13,1.55C694,519.74,694.75,516.45,694.69,512.81Z" transform="translate(-152.92 -49.52)"/><path class="cls-2" d="M798.36,492.39c2-9.34,4.85-17,9.73-23.75,2.51-3.47,5.48-8.27,10.37-6,5.38,2.54,3.34,8.06,2.07,12.45C817.51,485.63,809.56,490.17,798.36,492.39Z" transform="translate(-152.92 -49.52)"/><path class="cls-2" d="M1307.49,519.67c1.51-13.93,5.68-25.18,13-35.15,2.4-3.28,5.31-7.13,10.15-5.15,5.13,2.11,5,6.94,3.88,11.36-3.22,13-11.54,22.93-20.36,32.47-1.08,1.15-2.6,2.31-4.38,1.36A4.46,4.46,0,0,1,1307.49,519.67Z" transform="translate(-152.92 -49.52)"/><path class="cls-2" d="M220,203c-18.86-.18-34.9-16.1-35-34.73-.08-19.43,16.69-36.3,35.67-35.88a35.81,35.81,0,0,1,34.84,35.77C255.44,187.35,239.26,203.22,220,203Zm22.22-12.26c-3.08-7.28-8.28-13.12-13.47-19.46,8.49-2.71,11.92-8.15,10.21-16.06s-8-9.78-15.17-9.81c-5.24,0-10.5.29-15.72,0-4.51-.28-5.68,1.66-5.59,5.78.2,9.65-.28,19.33.29,28.95.22,3.77-3.36,10.79,2.94,10.86,6.52.08,2.11-7,3.23-10.71.82-2.71-1.68-6.95,1.82-8.14,4.05-1.38,9-1.6,12.29,2.26a111.61,111.61,0,0,1,9.31,12.6C234.7,190.72,237.37,192.67,242.19,190.77Z" transform="translate(-152.92 -49.52)"/><path class="cls-2" d="M1466.92,486.23c-.53,7.06-7,14.34-13.75,15.66-2.39.47-4.1.29-3.2-2.61,1.94-6.28,4.15-12.47,9-17.26,1.63-1.61,3.45-2.95,5.79-1.58C1466.92,481.73,1467.08,484,1466.92,486.23Z" transform="translate(-152.92 -49.52)"/><path class="cls-1" d="M242.19,190.77c-4.82,1.9-7.49-.05-9.86-3.77A111.61,111.61,0,0,0,223,174.4c-3.3-3.86-8.24-3.64-12.29-2.26-3.5,1.19-1,5.43-1.82,8.14-1.12,3.72,3.29,10.79-3.23,10.71-6.3-.07-2.72-7.09-2.94-10.86-.57-9.62-.09-19.3-.29-28.95-.09-4.12,1.08-6.06,5.59-5.78,5.22.33,10.48,0,15.72,0,7.14,0,13.45,1.82,15.17,9.81s-1.72,13.35-10.21,16.06C233.91,177.65,239.11,183.49,242.19,190.77ZM219.28,150.5v.2c-2.2,0-4.41,0-6.61,0-2.92,0-4,1.77-3.68,4.28.47,3.83-2.31,9.82,2,11,5.51,1.53,12,1.86,17.8-.8a7,7,0,0,0,4.17-7.44,6.91,6.91,0,0,0-6.26-6.66C224.23,150.74,221.75,150.69,219.28,150.5Z" transform="translate(-152.92 -49.52)"/><path class="cls-2" d="M219.28,150.5c2.47.19,4.95.24,7.4.6a6.91,6.91,0,0,1,6.26,6.66,7,7,0,0,1-4.17,7.44c-5.8,2.66-12.29,2.33-17.8.8-4.3-1.2-1.52-7.19-2-11-.31-2.51.76-4.3,3.68-4.28,2.2,0,4.41,0,6.61,0Z" transform="translate(-152.92 -49.52)"/><g class="cls-3"><path class="cls-4" d="M1887,67.7c95.31,0,177.2,57.42,213,139.54l21.28,4C2085.48,116.73,1994.1,49.52,1887,49.52c-127.23,0-232.29,94.86-248.34,217.71l18.95-4C1675.22,152.44,1771.21,67.7,1887,67.7Z" transform="translate(-152.92 -49.52)"/><path class="cls-5" d="M2096.93,399.54A232.29,232.29,0,0,1,1887,532.28c-121,0-220.35-92.5-231.27-210.63l-18.56-3.8c9.16,130,117.5,232.61,249.83,232.61,104.21,0,193.54-63.64,231.28-154.17Z" transform="translate(-152.92 -49.52)"/></g><path class="cls-6" d="M1911.84,532.16c4.69-23.15,8.94-38.94,12.6-50.4,1.23-3.88,3.54-10.84.18-16s-10-5.37-18-7c-.43-.09-10.43-4-30.42-11.7-10.38-4-22.84-10.13-60.12-34.2-17.75-11.46-32.27-21.22-56.16-37.62-38.29-26.29-57.28-39.66-58.32-40.32-52.68-33.32-92.66-41.9-91.08-48.06,1.09-4.29,21.24-3.41,38.16-.9,41.18,6.08,59.91,21.28,112.68,47.7,55.74,27.9,90.29,38.69,100.44,41.76,22,6.66,39.29,11.77,63.72,13.68,47.91,3.73,81.34-8.13,88.56-10.8,31-11.49,46.13-26.58,49.68-30.24,8.4-8.69,20.23-21.25,21.42-39.78.32-5.05,1.28-20-9.18-30.06-11.11-10.72-29.16-10.26-41-4.32a36,36,0,0,0-10.44,7.92l-38-37.62a77.7,77.7,0,0,1,25.2-18c27.14-12,52.19-4.09,56.34-2.7,1.8.6,36.61,12.91,49.14,48.78,9.69,27.76-.11,52.06-6.48,67.86-11.08,27.46-28.82,43.71-47.7,61-20.2,18.51-32.4,28.26-51.3,36.54-17.3,7.57-33.65,16.23-51.84,22.86-1.06.38-4.54,1.17-6.66,4.14-2.76,3.84-1.26,8.58.36,16.38,2.12,10.25-.54,1.61,4,26.8.77,4.29,1.89,10.39,3.36,17.76Z" transform="translate(-152.92 -49.52)"/></svg>