<svg id="Layer_9" data-name="Layer 9" xmlns="http://www.w3.org/2000/svg" viewBox="0 0 2211.23 580.61"><defs><style>.cls-1{fill:#25247b;}</style></defs><title>egardesh</title><path class="cls-1" d="M64.62,238.16c3.65-7.28,28.26-53.66,83-76.64,20.33-8.54,43.08-12.68,68.51-11.77C281.58,152.12,327.63,188,360.26,243c8.7,14.68,7.47,26.51-9.14,34q-60.4,27.33-121,54.31c-9.86,4.4-19.92,4.54-26-.89-3.2-2.84-4.34-6.46-5.43-10.38-.65-2.35-5.39-20.31,3.68-31.44,8.81-10.79,20.74-3,38.65-15.21,4.19-2.86,15.86-10.84,15.31-20.6-.38-6.59-10.18-15.6-17.74-18.34-38.25-13.91-85.4,3.85-104.16,37.67-19.13,34.47-8.92,82.48,23.06,108.45,31.33,25.44,76.66,23.35,109-8C290.83,349,320.38,349,349.3,351.2c22.42,1.67,18.1,20.75,10.4,33.89-18.83,32.14-39.46,63.22-59.5,94.65-23.28,36.53-46.44,73.15-70.27,109.32-5,7.53-12.63,13.29-19.05,19.86-6.46-7.26-13.9-13.87-19.22-21.89C168.4,552,115.9,497.18,77.17,413.19c-4.06-8.81-10.08-22.39-16.63-39.46C56.66,364.31,32.36,302.49,64.62,238.16Z" transform="translate(-48.12 -38.09)"/><path class="cls-1" d="M2092.51,38.09l2.7,145.32c-1.28,5.78-2.08,13.73,2.31,18.3,6.78,7,22.19,2.18,28.29.51,45.6-12.52,116,4.13,130.55,35.09,1.58,3.37,2.21,5.53,2.28,23.08.22,60.73-.61,121.47.69,182.17.48,22.13-8.24,29-28.79,28.36-19.73-.65-40.29,1.43-40.53-27.05-.33-39.91,0-79.81-.25-119.72-.07-11.24,0-22.7-2.06-33.67-5.14-27.23-19.62-39.14-44.13-38.07-24.74,1.08-39.53,13.91-40.9,41.44-2,39.81-.89,79.77-1.16,119.67-.07,10.4.31,20.86-.58,31.2-2,23.43-19.09,26.23-37.62,26.22-11.64,0-22-2.14-28.09-9.25-5.4-6.34-5.57-14.43-5.6-17.88-.19-20.38-.19-182.82.37-405.72Z" transform="translate(-48.12 -38.09)"/><path class="cls-1" d="M661.15,531.7c-7.63,17.65-21.7,49-56.25,69.45-6.08,3.6-45.09,25.87-93.41,14.19C456.17,602,423.63,552.58,419.05,520c-2.2-15.64,2.88-21.33,4.24-22.7,9.16-9.25,29.36-3.8,41.92,2a50.87,50.87,0,0,1,17.42,13.5c9.84,11.51,22.58,22.69,36.35,28.27,37.47,15.18,76.32-8.55,87.52-53.91,5.11-20.71,5.17-42.93,5.52-64.5.54-33-.27-66-1.22-98.94-.94-32.51-20.19-53.25-48-65.14-26.13-11.14-54.38-1.53-75,21.56-17.71,19.86-21.32,52-8.8,78.31s43.52,43.24,70.78,37.64c15.2-3.13,31.48-12,36.37,12.87,6.4,32.52-4.63,56.62-29.85,59.38-49.51,5.41-90.51-13.66-122-51-40.59-48.13-44.51-118.28-11.6-167.51,37-55.32,100.94-79.83,163.83-57.71,13.33,4.69,50,17.82,71.87,55.37a117.38,117.38,0,0,1,15,45.77c.73,42,.86,78.14.79,106.49C674,486.65,671.79,507.08,661.15,531.7Z" transform="translate(-48.12 -38.09)"/><path class="cls-1" d="M1483.47,209.39c1,66.34,8,73.34-1.39,127.41-4.79,27.63-7.67,44.18-18.83,63.34-20.54,35.25-62.11,67.22-108.21,69.51-80.82,4-163.92-84.88-147.72-166.33,14.61-73.46,73.07-121.7,143.06-118,35.23,1.84,54.17,33.89,35.84,63.94-3.72,6.09-19.11,8.28-28.49,7.14-39.4-4.79-71.52,15.62-80.38,53.2-9.06,38.4,11.63,73.85,49.7,85.16,44.29,13.17,86.88-21.27,87.5-72.75,1-78.07.36-156.16.26-234.24,0-16.49,1.77-31.31,20.7-37.43,3.65-1.18,20.62-7.44,34.63,3.06s13,28.85,12.87,30.16C1482.8,110.88,1482.65,154.89,1483.47,209.39Z" transform="translate(-48.12 -38.09)"/><path class="cls-1" d="M966.56,380.19s1.66,23.31,0,59.88c-.29,6.34-.85,15.78-7.67,22.77-5.11,5.24-12.74,8-22.78,8.24-20.2.52-30.86-9.89-31.36-29.88-1-38.7-.33-77.37-2.62-101.4-2.21-23.15-4.78-50.12-25.11-69.11-18-16.77-51.31-28.75-78.91-13.69-30.61,16.69-37.63,57.64-27.69,86,10.54,30.09,43,55.46,68.8,51.36,18-2.86,35.67-7.82,38.88,18.84,3.83,31.79-10.35,55.2-36.42,54.85-48.11-.64-87.67-20.54-114.29-61.27-23.17-35.46-29.92-75.37-22-112.07,2.37-10.95,13.44-62.12,61.67-89.84,65.09-37.4,134.18,4.51,137.33,6.5,7.46,4.7,38.72,24.39,51.38,60.86,2.38,6.83,3.49,13.93,5.72,28.14C966.45,331.94,963.53,337.69,966.56,380.19Z" transform="translate(-48.12 -38.09)"/><path class="cls-1" d="M1643.22,469.83c-88.4-.37-154.2-94.51-129.69-179.7,23-79.77,90.28-115.9,160.26-101.31,46.29,9.65,76.31,39.68,93,82.46,2.81,7.21-2.83,23.7-9.44,27.56-29.85,17.43-61.19,32.4-92.54,47.1-12.4,5.81-26.59,7.12-32.88-9.27-6.6-17.16,1.92-28,17.88-34.59,15.3-6.34,39.52-8.71,33.34-31.58-6-22.1-29.71-16.82-47.28-15.58-30.12,2.13-56.06,26.14-63.86,56.78-6.3,24.79,8.1,60.42,30.51,75.46,29.75,20,54.82,20.35,83.12-4.73,18-15.91,36.86-21.56,59.24-20.67s27.82,9.63,19,30.1C1745.4,434.35,1690.22,470,1643.22,469.83Z" transform="translate(-48.12 -38.09)"/><path class="cls-1" d="M1900.18,470.16c-25.27-.4-49-6.2-67.26-21.82a79,79,0,0,1-18.9-23.68c-4-7.7-15.65-30.49-5.66-42.94,9-11.24,30.83-8.06,43.25-2.88,10.84,4.52,12.43,9.7,22.85,15.89,9.18,5.46,23.58,10.75,46,9,1-.48,17.93-8.74,17.85-21.55,0-2.23,1.28-13-15.48-20.13-19.06-8.1-39.32-13.48-59.32-19.19-45.55-13-63.62-38.24-61.08-86.3,2-37.53,28.29-63.56,72-69,38.7-4.8,76.86-5.2,105.35,28.64,2.24,2.65,5.12,5,6.55,8,5.64,11.94,14.8,24.07,12.23,36.68-.37,1.83-2,8.47-7.26,13-10.28,8.92-30.89,6.58-50-7.17-1.34-1.93-19.92-27.81-45.44-24.78-10.91,1.3-26.1,8.23-27.19,18.62s12.31,19.07,19,23.46c15.67,10.22,26.73,10,44.4,14.26,56.67,13.57,75.51,40,76.29,84.32.81,45.44-37.86,80.71-88.41,86.38C1913.92,469.72,1907.82,469.74,1900.18,470.16Z" transform="translate(-48.12 -38.09)"/><path class="cls-1" d="M998.13,218.51c-.13-6.07-.39-18.6,7.83-26.73,5.5-5.43,14-7.66,26.16-7.53,41.28.44,77.36-.39,116,1.17,23.69,1,31.16,4.78,37,11.66,12.84,15.09,5.42,40.14,3,47.35-1.41,3.65-4.06,8.73-9.21,11.91-9.32,5.76-19.27.6-31.82-.83-20.92-2.39-41.58,6.05-51.81,15.67-11.41,10.74-18.3,26.43-18.89,45.8-1.19,39,.21,78-.32,117-.41,29.25-8.15,36-38.17,36-31,0-37.06-5.19-37.57-35.67-.61-36.41-.14-72.83-.14-109.25C999.06,280.17,998.64,243.91,998.13,218.51Z" transform="translate(-48.12 -38.09)"/></svg>