<svg id="Layer_2" data-name="Layer 2" xmlns="http://www.w3.org/2000/svg" viewBox="0 0 2113.51 477.08"><defs><style>.cls-1{fill:#231f20;}.cls-2{fill:#d71920;}</style></defs><title>eghamat24</title><path class="cls-1" d="M2169.24,551h-86.6c-.19-4.14-.43-6.81-.43-9.48q-.09-186.83-.3-373.64c0-5.89,1.76-9.34,6.55-12.7,25.13-17.62,50-35.62,74.93-53.52a54.46,54.46,0,0,0,4.2-3.7c.55,2.47,1.58,4.94,1.58,7.41Q2169.29,328.14,2169.24,551Z" transform="translate(-55.73 -97.92)"/><path class="cls-1" d="M1859.53,97.92V173h-82.37V97.92Z" transform="translate(-55.73 -97.92)"/><path class="cls-1" d="M1965,97.92V173h-82.37v-75Z" transform="translate(-55.73 -97.92)"/><path class="cls-1" d="M497.3,171.56C455.89,256.73,415,340.89,373.65,425.94H463.2V245h10.28c20.32,0,40.64.34,60.94-.17,7.72-.19,10.29,1.77,10.24,9.92-.36,53.52-.19,107-.19,160.58v11.18h52.45v80.39H544.37V575H464V507H112.77c2.09-4.47,3.38-7.4,4.82-10.26C157.06,418,196.12,339,236.25,260.53c15.62-30.54-2.56-68.22-33.46-76.19-25.46-6.57-50,3.77-61.63,27-12.47,25-6.59,52.77,14.71,68.53,5,3.73,10.52,6.86,16.68,10.85-11.75,23.42-23.48,46.8-35.55,70.88-19.92-9-37.51-19.6-50.89-36.23-42-52.21-40.23-129.81,4-180.26,21.6-24.66,49.43-37,81.28-40,43.45-4.11,81.84,7.43,113,39.58,40.33,41.65,49.61,98.91,24,151q-30.15,61.14-60.46,122.21c-1.2,2.41-2.35,4.84-4.26,8.79,12.83,0,24.49.35,36.1-.31,2.19-.13,4.79-4,6.11-6.62q47.42-95.19,94.56-190.5c8.77-17.67,17.47-35.38,26.61-52.85,1.34-2.55,5-5.49,7.59-5.53,26.07-.34,52.15-.12,78.22,0A39.63,39.63,0,0,1,497.3,171.56Z" transform="translate(-55.73 -97.92)"/><path class="cls-1" d="M1658.33,102.09v9.84q0,145.37.22,290.72c0,7.81,1,16.07,3.77,23.31,7.54,20.11,20.84,34.05,43.91,35.11,6.53.3,13.09,0,20.28,0-3-9.07-6.3-17.95-8.82-27.05-22-79.45,9.63-188.11,130.65-209.86,90.75-16.31,174.84,41.49,189.7,132.22,13.92,85-30,175.4-138.39,190.64-31.83,4.48-64.56,3-96.89,3.32-26.33.28-52.71,0-79-1.37-53.6-2.74-98.49-22.17-127.91-69.68a132.92,132.92,0,0,1-20.33-71.72q.36-119.42.92-238.82c0-3.1,1.27-7.4,3.51-9.11,24.8-19,49.91-37.69,75-56.41C1655.51,102.82,1656.38,102.74,1658.33,102.09ZM1793.48,388.8c-.1,45.71,35,79.56,82.51,79.6,47.25,0,82.15-35.34,82-83.18-.09-44.39-34.6-79.78-77.87-79.87C1832.08,305.25,1793.58,342.32,1793.48,388.8Z" transform="translate(-55.73 -97.92)"/><path class="cls-2" d="M1110.26,550.67c1.53-3.45,2.62-6.17,3.91-8.8q55.23-112.38,110.5-224.76c30.92-62.86,97.7-100,168.19-93.57s133.33,66.39,141.89,136.78c6.14,50.48-3.65,97.16-38.3,136.23-25.49,28.74-58.06,46.12-95.93,50.35-31.5,3.51-63.44,3.78-95.2,4-62,.46-124-.1-186.07-.24Zm262.38-81.86c46.32,0,81.75-35.21,81.84-81.4s-34.65-82.17-79.35-82.2c-46.24,0-85.29,38.63-85.44,84.6C1289.54,435.12,1324.89,468.79,1372.64,468.81Z" transform="translate(-55.73 -97.92)"/><path class="cls-1" d="M662.27,300.82h80.56c0,4.27,0,8.27,0,12.28.33,29.09.13,58.2,1.15,87.27,1.25,35.61,34.22,68.06,69.75,68.32,62.86.45,125.73.31,188.59,0,31.56-.17,60.66-23.34,69.78-54.38,9-30.74-2.95-64.82-29.78-82.32-10.93-7.13-22.83-12.76-34.85-19.37,12-23.76,24-47.36,36.06-71.23,58.92,20.34,96.71,59.26,110.56,120.13,1.88,8.26,3.26,16.65,4.31,25.05a15.88,15.88,0,0,1-1.81,8.47c-25,50.29-50.23,100.45-75.06,150.82-3,6.19-7.52,6.07-12.79,6.08-76.87,0-153.74.39-230.61-.06-19.34-.11-39.16-.59-57.92-4.7-60.8-13.33-111.55-68.3-117.3-130.31C659.39,378.78,662.27,340.12,662.27,300.82Z" transform="translate(-55.73 -97.92)"/><path class="cls-1" d="M742.25,260.25H661.41V185.39h80.84Z" transform="translate(-55.73 -97.92)"/><path class="cls-1" d="M767.39,260.19V184.8h74.73c3.69,0,7.11-.31,7.06,5.26-.21,22.48-.14,45-.22,67.44,0,.75-.56,1.5-1,2.69Z" transform="translate(-55.73 -97.92)"/></svg>