<svg id="Layer_4" data-name="Layer 4" xmlns="http://www.w3.org/2000/svg" viewBox="0 0 2176.51 541.58"><defs><style>.cls-1{fill:#ae2328;}</style></defs><title>hotelyar</title><path class="cls-1" d="M265.54,55.2c2.12,7.42,6.34,13.92,9.19,21,1,2.59,3.22,2.64,5.39,3l20.11,3.13c-5.1,5.3-9.43,10.13-14.14,14.58-2.71,2.56-3.55,5.06-2.77,8.74,1.36,6.42,2.18,13,3.42,20.6-6.37-3.53-12-6.41-17.35-9.7-3.2-2-5.79-2.09-9,0-5.33,3.37-11,6.23-17.35,9.8,1.18-7.51,1.83-13.87,3.29-20,1-4.25,0-7.14-3.17-9.85-4.67-4-9.13-8.18-13.68-12.29l1-1.87c6.16-1,12.29-2.26,18.48-2.88,3.84-.38,5.86-2.08,7.24-5.52,2.51-6.28,5.34-12.44,8-18.65Z" transform="translate(-61.74 -55.2)"/><path class="cls-1" d="M142.28,291.7c4.13-10.48,10.57-19.37,20.46-24.84,31.52-17.41,63.25-22,94.3,1.08,6,4.43,9.74,4.48,16.11-.27C309.51,240.56,365,251,387,288.45c.54.92,1,1.89,1.77,3.47-7.88-.93-14.7-3.37-21.62-5.34-9.55-2.72-19.06-5.58-29-6.39-30.51-2.49-57.82,23-58.26,53.68q-1.67,116.61,5.79,233c.51,7.93.61,15.92,1.73,23.76.78,5.49-1.2,6.28-5.95,6.14-10.81-.29-21.64-.32-32.45,0-5,.16-6.71-.83-6.3-6.47,3.23-44.47,5.78-89,7.24-133.56,1.32-40.38.75-80.78,1.11-121.17.27-29.2-29.28-62.87-66.26-54.46-12.94,2.94-25.52,7-38.27,10.5C145.27,291.94,144.1,292.85,142.28,291.7Z" transform="translate(-61.74 -55.2)"/><path class="cls-1" d="M431.93,468.61c-1.53-14.53-2.33-28.07-4.35-41.49-5.34-35.37-23.75-62-53.41-81.33C357,334.58,338,326.53,320.42,316c-2.9-1.75-8.21-3-7.79-6.07.59-4.23,5.34-6.65,9.46-8.43a28.93,28.93,0,0,1,14.23-2.32c39.05,3.69,72.47,18.84,94.41,52.22,19.3,29.34,21.36,62.38,13.17,96.07A45.81,45.81,0,0,1,431.93,468.61Z" transform="translate(-61.74 -55.2)"/><path class="cls-1" d="M99,469.18a45.14,45.14,0,0,1-13.2-24c-5.34-26.47-4.85-52.71,5.37-78.12,14.41-35.82,44.09-53.19,78.74-64.1a69.71,69.71,0,0,1,43,0c6.67,2.15,6.75,2.63,1.88,7.92-6.88,7.48-15.66,12.09-24.67,16.38-15.15,7.21-30.31,14.47-43.4,25.19-27.48,22.51-43.71,51-45.61,86.95C100.64,448.83,99.79,458.26,99,469.18Z" transform="translate(-61.74 -55.2)"/><path class="cls-1" d="M73.7,320.65a34.49,34.49,0,0,1,1.5-23.08c10.19-24,22.12-47.18,41.28-65.52,27.14-26,60.61-29.3,95.15-15.23A46.66,46.66,0,0,1,235,237.5c2,3.53,1.82,5.12-2.74,4.8-7.47-.53-15-1.06-22.45-1.23-42.31-1-76.05,17.29-104.39,47.15-6.06,6.38-11.1,13.71-16.86,20.38C84.39,313.39,79.88,317.86,73.7,320.65Z" transform="translate(-61.74 -55.2)"/><path class="cls-1" d="M362.46,208.8c20.65.58,43.4,10.74,60.17,32.92,14.7,19.44,28.36,39.47,34.3,63.63.47,1.93.84,3.88,1.2,5.83.43,2.35,2.1,5.59.3,6.88-2.4,1.73-5.34-.62-7.78-1.93-6.6-3.57-11-9.44-15.35-15.3-22.93-30.93-53-50.75-90.94-58.07a118.75,118.75,0,0,0-44.78-.19c-4.3.81-4.55-.46-3.69-3.86,2-7.86,7.27-13,13.89-16.94C323.9,213.34,339.11,208.63,362.46,208.8Z" transform="translate(-61.74 -55.2)"/><path class="cls-1" d="M319.71,101c6.25-1,12.49-2.27,18.78-2.93,3.37-.36,5-1.93,6.26-4.81,2.64-6,5.53-12,8.92-19.23,3.27,7,6.22,12.89,8.81,19,1.35,3.16,3.17,4.78,6.75,5.15,6.25.66,12.44,1.92,18.66,2.93l1.41,2.08c-4.59,4-9.14,8.09-13.81,12-3.14,2.63-4.38,5.37-3.29,9.72,1.54,6.15,2.11,12.54,3.31,20.24-6-3.3-11.23-5.82-16.05-9-4-2.6-7.23-2.85-11.33-.11-4.87,3.25-10.26,5.72-16.19,9,1-6.86,1.41-12.83,2.93-18.5,1.46-5.46.14-9.22-4.13-12.59s-8.36-7.13-12.53-10.72Z" transform="translate(-61.74 -55.2)"/><path class="cls-1" d="M469.24,150.38c-4.28,3.76-8.41,7.73-12.9,11.23-4.25,3.31-4.81,7.24-3.73,12.17,1.25,5.75,1.93,11.61,3.05,18.56-6.79-3.76-12.61-6.81-18.24-10.16a6.18,6.18,0,0,0-7.26,0c-5.45,3.29-11.1,6.23-17.35,9.68-.44-7.4,1.52-13.88,2.59-20.39.61-3.74-.19-6.32-2.93-8.7-4.78-4.14-9.45-8.41-14.16-12.62l1.35-1.93c6.22-1,12.41-2.13,18.66-2.83,3.24-.36,5.14-1.61,6.44-4.64,2.65-6.21,5.65-12.27,9-19.52,3.33,7.07,6.38,13,9,19.21,1.38,3.3,3.39,4.64,6.89,5,6.1.64,12.15,1.8,18.22,2.74Z" transform="translate(-61.74 -55.2)"/><path class="cls-1" d="M195.8,143.87c-4.92-2.63-9.16-4.16-12.51-6.82-6.56-5.21-12.42-4.64-18.83.19-3.26,2.46-7.21,4-11.51,6.35-.26-7.48,1.53-13.83,2.62-20.21.64-3.72-.06-6.35-2.87-8.74-4.84-4.13-9.57-8.39-14.34-12.6l1.38-2c5.63-.85,11.23-1.93,16.88-2.5,4.6-.46,7.56-2.19,9.27-6.8C168,85,170.91,79.63,174,73c3.27,7,6.27,12.77,8.71,18.79,1.43,3.55,3.67,5,7.29,5.47,6.09.75,12.14,1.81,18.21,2.74l1.81,2.39c-4.4,3.59-8.71,7.3-13.23,10.72s-5.17,7.54-4,12.75C194.1,131.36,194.71,137,195.8,143.87Z" transform="translate(-61.74 -55.2)"/><path class="cls-1" d="M133.58,150.28c-4.92,4.37-9.81,8.79-14.8,13.09-2.44,2.1-3,4.39-2.36,7.6,1.36,6.66,2.23,13.42,3.48,21.26-6.57-3.63-12.39-6.61-17.94-10-2.84-1.74-5-1.68-7.83,0-5.57,3.38-11.39,6.37-17.93,10,.85-5.19,1-9.46,2.28-13.36,3-9.16.47-16.08-7.09-21.7-2.94-2.19-5.5-4.9-9.65-8.64,8.22-1.3,14.16-2.49,20.16-3.1,3.74-.39,5.94-1.83,7.39-5.36,2.52-6.08,5.5-12,8.75-19,3.25,7,6.23,13,8.89,19.23,1.38,3.22,3.42,4.66,6.92,5,6.13.64,12.21,1.79,18.31,2.73Z" transform="translate(-61.74 -55.2)"/><path class="cls-1" d="M270.73,219.42c2.86-20.52,17.09-39,41.84-43.47a45.93,45.93,0,0,1,30.75,4.67c2,1.07,5,1.57,4.48,4.87a7,7,0,0,1-4.81,5.84,32.3,32.3,0,0,1-9,1.78c-13.54.14-24.18,6-32.58,16.18-5.18,6.27-10.46,12.57-14.75,19.44-3.68,5.89-6.81,4.79-10.8,1C272.9,226.9,270.67,223.74,270.73,219.42Z" transform="translate(-61.74 -55.2)"/><path class="cls-1" d="M207.17,175.16c25.06-.16,45.44,15.52,51,37.81a22.29,22.29,0,0,1-.25,13c-2.42,6.88-8.28,8.19-13.16,2.7-5.12-5.78-9.77-12-14.79-17.85-9.38-11-20.13-19.27-35.8-17.49-2.26.26-4.35-.7-6.27-1.83-2.51-1.48-5.24-3.2-5.35-6.29-.12-3.59,3.46-4.15,6-5.32C195,176.88,201.77,175.11,207.17,175.16Z" transform="translate(-61.74 -55.2)"/><path class="cls-1" d="M2203.78,205.07q-13.77,47.61-27.58,95.2c-3,10.42-3.72,23.88-19.1,23.18-13.35-.62-14.86-12.32-17.65-22.5-8.75-31.92-17.8-63.76-26.74-95.62l-6.59.43q0,18.87,0,37.73c0,17.88.27,35.77,0,53.64-.18,10.52,4.22,25.44-12.42,26.11-17.14.7-13.31-14.39-13.59-24.9-.45-17.12-.31-34.27-.32-51.4,0-22.36-.35-44.72.28-67.06.31-10.85-5.12-25.78,13.89-27.23,16.21-1.24,31-1.2,36.3,19.92a580.24,580.24,0,0,0,30.66,90.9c9.19-30.15,18.81-60.17,27.39-90.49,4-14.17,11-20.84,26.69-20.9,17.59-.06,23.63,6.51,23.29,23.85-.83,42.45-.64,84.94,0,127.4.16,11.57-2.9,19.93-14.9,19.9-11.61,0-13.1-9.15-13-19.2.4-32.63.15-65.28.15-97.92Zm-97.29-5.57,1.4,1.26,1.29-1.45-2-1.38Z" transform="translate(-61.74 -55.2)"/><path class="cls-1" d="M897,246.08c-1.25,25.72-8.49,55.82-42,72.58-43.25,21.64-95.36,1.18-104.1-47a181.55,181.55,0,0,1-3-33.31c.4-55.11,28.77-85.95,78-85.5C873.46,153.25,897.4,182.06,897,246.08Zm-34-6.75c-.43-7.7-.33-14.44-1.27-21-3.41-23.74-16.3-36.46-37.11-37.15S790,192,784.2,215.08c-3.83,15.38-3.66,30.94-.5,46.39,4.94,24.12,17.78,35.61,38.77,35.18,20.3-.42,34.46-13.33,38.74-36.14C862.57,253.26,862.47,245.74,863,239.33Z" transform="translate(-61.74 -55.2)"/><path class="cls-1" d="M2057.29,240c-.68,31-9.46,62.92-48.31,78.88-43,17.65-86.06-3.1-97.32-47.94-2.94-11.7-3.54-23.49-3.43-35.41.5-54.77,29-85.69,78.29-85.15C2033.19,150.91,2057,179.05,2057.29,240Zm-115.78-2.7c1.54,10.25,1.92,20.83,4.85,30.66,5.88,19.8,23.26,29.6,43.32,25.9,20.65-3.8,32.29-21.5,33.78-51.34,1.73-34.68-7.89-56.59-27.56-62.28a44.59,44.59,0,0,0-11-1.33C1956.7,178.17,1942.33,198,1941.51,237.32Z" transform="translate(-61.74 -55.2)"/><path class="cls-1" d="M598,239.72c0-23,.66-46.12-.26-69.13-.49-12.16,4.74-15.69,15.5-15.71,9.89,0,18.05,1.19,17.57,14.06-.28,7.42.19,14.86.17,22.29-.08,33.29-4,29.77,29.49,29.7,32.16-.07,27.91,4.25,28.21-28.54.06-6.69.49-13.42-.07-20.06-1-12.27,3.78-17.73,16.48-17.57,12.06.16,17.18,4.31,17,17.17-.59,44.6-.37,89.22-.14,133.83.06,12-2.37,20.1-17,20.08-15.21,0-16.46-9.34-16.3-20.7.13-8.92-1.21-18.05.26-26.72,4.11-24.17-6.42-30-29-28.44-32.91,2.3-28.64-4.81-29,30.29-.12,9.66-.22,19.33,0,29,.29,12.56-6,16.83-18,16.56s-15.21-6.18-15-16.95C598.28,285.83,598,262.77,598,239.72Z" transform="translate(-61.74 -55.2)"/><path class="cls-1" d="M1660.68,244.18c16,16.59,21.63,38.52,30.32,58.92,3.25,7.63,7.31,17-3.76,20.54-8.59,2.73-19.91,5.13-25.58-6.33-4.91-9.94-8.26-20.64-12.79-30.79-3.91-8.76-7.8-17.69-13-25.68-4.47-6.81-12.4-8.37-20-6.18-8.15,2.34-4.82,9.85-5,15.22-.46,12.64-.08,25.31-.18,38-.08,10.35-4,17-15.73,17.05-12.34.07-17.18-5.7-17.11-17.81q.4-68.11,0-136.24c-.08-11.57,5-16.21,16.09-16,12.65.22,25.32-.21,38,.12,30.43.79,46.89,10.7,53.25,31.6C1691.64,208.19,1684.41,225.62,1660.68,244.18Zm-40.59-63.58c-18.13.23-8.16,17.29-9.54,27.54-1.33,9.93-3.09,21.49,14.28,20,15.84-1.41,28.25-6,28.38-24.13C1653.34,185,1639.54,181.6,1620.09,180.6Z" transform="translate(-61.74 -55.2)"/><path class="cls-1" d="M1486.59,155.07c14.93-3.56,21.47,4.45,25.93,18.84,13.44,43.34,28.2,86.26,42.31,129.39,2.41,7.38,8.27,16.5-3.85,20.38-10.23,3.28-20.87,3.48-27-8.41-.34-.65-.5-1.41-.88-2-5.56-9.25-1.66-25.44-14.09-28.36-14.15-3.33-29.58-1.16-44.46-1.44-8.32-.15-11.45,4.67-13.21,12.12a120.74,120.74,0,0,1-7.26,21c-4.72,10.68-14.63,10-23,7.49-9.54-2.84-7.56-10.93-5-18.5,15.2-45.9,30.58-91.75,45.12-137.86C1465.38,154,1474.9,154.17,1486.59,155.07Zm-2.22,33.55c-5.56,16.66-9.57,28.2-13.27,39.84-9.57,30.1-7.42,32.39,23.49,29.15,9.21-1,11.26-3.27,8-12.23C1496.46,228.45,1491.51,211.11,1484.37,188.62Z" transform="translate(-61.74 -55.2)"/><path class="cls-1" d="M1089.81,156.06c10.41,0,20.83.15,31.24-.05,9.4-.18,13.35,4.13,13.2,13.54-.15,9.2-3.73,13.82-13.32,13.5-8.92-.31-18,1-26.74-.31-19-2.81-21.69,6.61-21.46,22.8.19,13.94,4.72,18.73,18.13,17.42,8.11-.79,16.35-.14,24.54,0,7.56.11,10.22,4.55,10.24,11.56,0,7.23-.89,13.85-9.92,14.46-7.41.49-15,1.2-22.28.13-17.31-2.55-20,5.13-21,21.08-1.26,21.58,6.63,27.64,26.31,24.88,7.29-1,14.86,0,22.29-.08,9-.16,14,3.31,13.58,13.1-.4,8.83-1.51,16.75-12.93,16.78-22.32.06-44.64.38-66.94-.16-11.59-.28-14.11-8.91-14.11-18.71,0-44.63.17-89.27-.13-133.9-.07-11.3,4.36-16.53,15.78-16.21,11.15.3,22.31.06,33.47.06Z" transform="translate(-61.74 -55.2)"/><path class="cls-1" d="M1887.37,280.78c5.91,32.41-20.9,52-57.41,44.83-39.62-7.81-63.48-53.73-55-105.78,7.58-46.3,39.67-72.65,81.53-66.93,24,3.28,35.07,13.5,33.61,30.49-.87,10.11-3.42,12.65-13.87,7.6-39.72-19.21-64.8-4-66.88,40-.46,9.58-.36,19.5,1.55,28.84,6.25,30.57,30.35,42.66,58.79,30.14C1875,287.6,1880.06,284.6,1887.37,280.78Z" transform="translate(-61.74 -55.2)"/><path class="cls-1" d="M1321.85,283.19c3.43-17.06-2-33.93-18.51-49.39-18.92-17.72-22.32-42.58-22.27-67.86,0-11.7,7.2-10.92,14.74-10.91s15.07-1.42,14.57,10.72c-.76,18.21,3.57,35.24,15,50.11,7.39,9.6,13.5,9.23,20.9-.19,10.69-13.62,14.53-29.3,14.09-45.86-.32-11.72,3.44-15.17,15.19-15.15,12.26,0,14.76,4.7,14.56,15.82-.42,23.89-5,46.89-22.8,63.15-16.18,14.73-20.16,31.24-18.24,51.43,1,10.3,0,20.78.17,31.17.15,10.16-6.85,9.51-13.69,9.57s-13.84.5-13.75-9.55C1321.92,306.6,1321.85,297,1321.85,283.19Z" transform="translate(-61.74 -55.2)"/><path class="cls-1" d="M1162.18,238.08c0-21.58.53-43.19-.21-64.75-.41-11.82,2.83-18.36,15.61-18.79,14.12-.47,17.44,6.76,17.21,19.47-.56,31.25,1.06,62.58-.47,93.77-1,19.7,3.59,29.68,25.16,25.93,5.77-1,11.88,0,17.83,0,8.45,0,12.3,4.5,12,12.52-.27,8.2-.25,17.87-11.46,18.27-20.82.76-41.7.89-62.51,0-11.43-.47-13.38-9.7-13.34-19.43.11-22.33,0-44.67,0-67Z" transform="translate(-61.74 -55.2)"/><path class="cls-1" d="M946.3,252.83c0-14.88-1.23-29.88.32-44.59,2-18.86-2.85-28.31-23.75-24.76-6.06,1-14.12,3-18.54-3.75-3.29-5-2.91-11.44-1.16-17.3,1.94-6.49,7.57-6.28,12.77-6.29,31.23-.09,62.47,0,93.7-.21,9.38-.07,13.2,3.81,13.41,13.3.22,10.42-3.61,15.34-14.26,14.58-4.44-.32-9,.49-13.37-.16-14.21-2.12-17.51,4.24-17.17,17.64.88,34.93,0,69.9.4,104.84.12,12.22-2.44,20.14-17.11,19.62-13.6-.49-15.47-8.53-15.32-19.38C946.46,288.53,946.28,270.68,946.3,252.83Z" transform="translate(-61.74 -55.2)"/><path class="cls-1" d="M1716.91,305.32c0-15.15,5.56-22.51,18.37-22.76,14.51-.3,19.5,8.43,18.53,21.33-.88,11.69-4.25,22.31-19.1,21.79S1718.63,313.4,1716.91,305.32Z" transform="translate(-61.74 -55.2)"/><polygon class="cls-1" points="577.01 406.46 569.39 398.83 561.93 406.38 569.47 414 577.01 406.46"/><path class="cls-1" d="M647,492.71a22.89,22.89,0,0,1-.56,5.22,8.9,8.9,0,0,1-2.1,4,9.85,9.85,0,0,1-4.29,2.59,23.16,23.16,0,0,1-7.15.91H624.5a14.78,14.78,0,0,1-7.19-1.76,14.62,14.62,0,0,1-5.25-4.7,18.79,18.79,0,0,1-1.94-4.66,20.58,20.58,0,0,1-.71-5.41,30.38,30.38,0,0,1,.27-4.13,29.14,29.14,0,0,1,.89-4.1,45.82,45.82,0,0,1,1.62-4.54q1-2.4,2.49-5.43l-9.33-4.44q-1.7,3.52-2.88,6.47a50.76,50.76,0,0,0-1.91,5.64A40.17,40.17,0,0,0,599.17,489a31.31,31.31,0,0,0,1.08,8.27,27.31,27.31,0,0,0,3.07,7.19,23.78,23.78,0,0,0,4,4.76,24.32,24.32,0,0,0,5,3.57,25.76,25.76,0,0,0,12.17,3h8.41q12.2,0,18.3-5.77t6.12-17.32v-27.9H647Z" transform="translate(-61.74 -55.2)"/><rect class="cls-1" x="609.62" y="378.52" width="10.32" height="59.77"/><polygon class="cls-1" points="656.9 453.84 663.86 460.88 670.87 453.84 663.74 446.71 656.9 453.84"/><path class="cls-1" d="M750.29,470c-.21-1.28-.43-2.56-.67-3.83s-.46-2.43-.68-3.46-.42-1.92-.6-2.63-.3-1.18-.35-1.37l-9.74,2.94c.11.41.26,1,.45,1.76s.39,1.6.58,2.53.4,1.91.6,2.94.4,2,.56,3,.3,1.93.4,2.8.14,1.61.14,2.22a7.17,7.17,0,0,1-.7,3.46,5.29,5.29,0,0,1-1.64,1.88,4.6,4.6,0,0,1-1.87.77,9.32,9.32,0,0,1-1.43.14H717.73a7.64,7.64,0,0,1-1.37-.2,6.53,6.53,0,0,1-2.05-.85,6.28,6.28,0,0,1-1.87-1.81,5.3,5.3,0,0,1-.8-3.06v-12.4H701.32V490.1a23.91,23.91,0,0,1-.92,7.1,10.35,10.35,0,0,1-7.54,7.4,25,25,0,0,1-6.88.83H680.8v10.32H686a28.47,28.47,0,0,0,10.15-1.7,22.68,22.68,0,0,0,7.78-4.78,23.21,23.21,0,0,0,5.2-7.44,30.45,30.45,0,0,0,2.44-9.7,7.28,7.28,0,0,0,3,1.16,24.84,24.84,0,0,0,2.67.19v0h17.86a17.2,17.2,0,0,0,5.7-1,14.9,14.9,0,0,0,8.81-8.19,17.85,17.85,0,0,0,1.41-7.39,30.45,30.45,0,0,0-.19-3.2C750.66,472.51,750.49,471.26,750.29,470Z" transform="translate(-61.74 -55.2)"/><polygon class="cls-1" points="674.26 453.79 681.23 460.84 688.27 453.79 681.14 446.67 674.26 453.79"/><rect class="cls-1" x="702.81" y="378.52" width="10.32" height="59.77"/><path class="cls-1" d="M862.86,474.64a12.1,12.1,0,0,1,3.1-4.15,13.61,13.61,0,0,1,4.65-2.59,18.28,18.28,0,0,1,5.78-.89,16.19,16.19,0,0,1,3,.27,32.91,32.91,0,0,1,3.4.85l2.61-9.95a46.34,46.34,0,0,0-4.66-1,25.91,25.91,0,0,0-4.12-.33,28.57,28.57,0,0,0-10.51,1.83,23.39,23.39,0,0,0-7.9,4.95,21.64,21.64,0,0,0-5,7.34,23.11,23.11,0,0,0-1.74,8.93,25.54,25.54,0,0,0,.52,5.08,30.68,30.68,0,0,0,1.59,5.32l3.71.93,4.08,1.08,4.09,1.1,3.73,1,3,.78,1.85.5a12.69,12.69,0,0,1-.94,5,7.3,7.3,0,0,1-2.67,3.17,11.79,11.79,0,0,1-4.54,1.65,38.58,38.58,0,0,1-6.53.48h-8.74a15.9,15.9,0,0,1-7.32-1.68,12.68,12.68,0,0,1-5.2-4.83,18.65,18.65,0,0,1-2.65-10.19,28.3,28.3,0,0,1,.31-4.21,30.26,30.26,0,0,1,1-4.35c.46-1.51,1-3.11,1.7-4.81s1.5-3.57,2.47-5.62l-9.2-4.43c-1.17,2.4-2.16,4.64-3,6.71a62.16,62.16,0,0,0-2.05,5.95,40.59,40.59,0,0,0-1.18,5.53,39.43,39.43,0,0,0-.38,5.43A28.9,28.9,0,0,0,829.22,505a24.84,24.84,0,0,0,4,4.74,24.54,24.54,0,0,0,5,3.57,26,26,0,0,0,5.85,2.26,26.63,26.63,0,0,0,6.51.79h8.74a42.58,42.58,0,0,0,11.34-1.31,18,18,0,0,0,7.58-4,15.61,15.61,0,0,0,4.25-6.88,32.75,32.75,0,0,0,1.33-9.93,9.58,9.58,0,0,0-1.78-5.91,9.91,9.91,0,0,0-5.76-3.37l-14.55-3.73a3,3,0,0,1,0-.52v-.52A12.84,12.84,0,0,1,862.86,474.64Z" transform="translate(-61.74 -55.2)"/><path class="cls-1" d="M975.52,469c-.8-1-1.63-2.16-2.49-3.32s-1.73-2.33-2.63-3.5l-2.65-3.46c-.87-1.14-1.7-2.23-2.47-3.28l-5.47-7.21L952,454l4.31,5.35,5.72,7.11q2.61,3.25,4.37,5.95a25.67,25.67,0,0,1,2.57,4.83,5.7,5.7,0,0,1,.35,3.67,6.37,6.37,0,0,1-1.47,2.61,7.09,7.09,0,0,1-2.24,1.55,10,10,0,0,1-2.67.75,21.31,21.31,0,0,1-2.69.18,10.41,10.41,0,0,1-2.66-.35c-.91-.23-1.79-.49-2.65-.76a27.76,27.76,0,0,0,2.32-2.62,15.09,15.09,0,0,0,1.74-2.79,15.68,15.68,0,0,0,1.1-3.13,16,16,0,0,0,.39-3.65,14.62,14.62,0,0,0-1.09-5.27,17.74,17.74,0,0,0-3.24-5.24,17.43,17.43,0,0,0-5.26-4,15.58,15.58,0,0,0-7.15-1.6,19,19,0,0,0-6.65,1.14,16.93,16.93,0,0,0-5.39,3.18,14.29,14.29,0,0,0-3.61,4.89,14.87,14.87,0,0,0-1.31,6.26,15.57,15.57,0,0,0,.32,3.25,12.76,12.76,0,0,0,.91,2.78,14.35,14.35,0,0,0,1.45,2.48c.56.79,1.21,1.6,1.93,2.43-.67.08-1.27.14-1.81.16s-1.07.05-1.61.05l-1.7,0-2,0h-2.57a32.05,32.05,0,0,1-5.45-.35,4.94,4.94,0,0,1-3-1.45,5.45,5.45,0,0,1-1.2-3.09,49,49,0,0,1-.23-5.3V433.72H901.53V473q0,3.48.23,6.36a23.76,23.76,0,0,0,.93,5.16,12.2,12.2,0,0,0,2,4,10.3,10.3,0,0,0,3.59,2.8,20.66,20.66,0,0,0,5.51,1.66,43.26,43.26,0,0,0,5.72.52v0h4.69a93.93,93.93,0,0,0,10.67-.56,50.63,50.63,0,0,0,8.81-1.77c.3.17.67.36,1.12.56l1.28.6c.47.23,1,.45,1.45.67a25,25,0,0,0,6.51,2.26,33.47,33.47,0,0,0,6.18.6,23.89,23.89,0,0,0,6.46-.83,18.82,18.82,0,0,0,5.22-2.32,15.79,15.79,0,0,0,3.88-3.57,15.38,15.38,0,0,0,2.42-4.56,15.66,15.66,0,0,0,.61-8.1A18.12,18.12,0,0,0,975.52,469Zm-25.24,6.55a8.25,8.25,0,0,1-1.43,2.17,11,11,0,0,1-2.1,1.76,21,21,0,0,1-2.48,1.41c-1.28-.69-2.39-1.34-3.34-2a14.51,14.51,0,0,1-2.41-1.92,6.92,6.92,0,0,1-1.45-2.18,7.36,7.36,0,0,1-.47-2.71,5.06,5.06,0,0,1,.58-2.37,6.57,6.57,0,0,1,1.57-2,7.94,7.94,0,0,1,2.3-1.34,7.62,7.62,0,0,1,2.72-.5,7,7,0,0,1,2.17.41,7.41,7.41,0,0,1,2.3,1.29,7.49,7.49,0,0,1,1.83,2.2,6.08,6.08,0,0,1,.74,3.06A6.61,6.61,0,0,1,950.28,475.51Z" transform="translate(-61.74 -55.2)"/><polygon class="cls-1" points="1037.14 391.58 1030.01 384.45 1023.17 391.58 1030.13 398.62 1037.14 391.58"/><polygon class="cls-1" points="1054.55 391.54 1047.42 384.41 1040.54 391.54 1047.5 398.58 1054.55 391.54"/><path class="cls-1" d="M1177.92,469c-.8-1-1.63-2.16-2.48-3.32s-1.74-2.33-2.63-3.5l-2.66-3.46c-.87-1.14-1.69-2.23-2.46-3.28q-2.79-3.64-5.48-7.21l-7.79,5.84,4.31,5.35q3.12,3.86,5.72,7.11t4.38,5.95a25.67,25.67,0,0,1,2.57,4.83,5.77,5.77,0,0,1,.35,3.67,6.37,6.37,0,0,1-1.47,2.61,7.2,7.2,0,0,1-2.24,1.55,10.09,10.09,0,0,1-2.67.75,21.34,21.34,0,0,1-2.7.18,10.33,10.33,0,0,1-2.65-.35c-.91-.23-1.8-.49-2.65-.76a29.24,29.24,0,0,0,2.32-2.62,15.09,15.09,0,0,0,1.74-2.79,16.34,16.34,0,0,0,1.1-3.13,16,16,0,0,0,.39-3.65,14.64,14.64,0,0,0-1.1-5.27,17.71,17.71,0,0,0-3.23-5.24,17.35,17.35,0,0,0-5.27-4,15.55,15.55,0,0,0-7.15-1.6,19.08,19.08,0,0,0-6.65,1.14,17,17,0,0,0-5.39,3.18,14.39,14.39,0,0,0-3.6,4.89,14.87,14.87,0,0,0-1.31,6.26,15.6,15.6,0,0,0,.31,3.25,13.32,13.32,0,0,0,.91,2.78,14.4,14.4,0,0,0,1.46,2.48q.84,1.19,1.92,2.43c-.66.08-1.26.14-1.8.16s-1.08.05-1.62.05l-1.7,0-2,0h-9.32c-.25,0-.72,0-1.41-.1a6.35,6.35,0,0,1-2.1-.62,5.47,5.47,0,0,1-1.88-1.58,4.57,4.57,0,0,1-.83-2.92V464.81h-10.28v13.43a6.81,6.81,0,0,1-.23,1.7,3.25,3.25,0,0,1-1,1.58,6.21,6.21,0,0,1-2.28,1.18,14.22,14.22,0,0,1-4,.47H1078.4a8,8,0,0,1-2.42-.39,7.25,7.25,0,0,1-2.18-1.12,6,6,0,0,1-1.55-1.76,4.56,4.56,0,0,1-.6-2.32V433.72h-10.2v59.61a22.45,22.45,0,0,1-.56,5.26,8.66,8.66,0,0,1-2.11,4,10,10,0,0,1-4.31,2.57,23,23,0,0,1-7.11.92h-1.91a11.68,11.68,0,0,1-5.61-1.41,11.91,11.91,0,0,1-4.21-3.65l0,0a12.81,12.81,0,0,1-1.55-3.71,17.77,17.77,0,0,1-.52-4.41,30.12,30.12,0,0,1,.2-3.44,27.37,27.37,0,0,1,.71-3.59,35.53,35.53,0,0,1,1.33-4q.83-2.13,2.07-4.7l-9.33-4.44q-1.65,3.44-2.67,6.24a46.5,46.5,0,0,0-1.58,5.2,34.12,34.12,0,0,0-.76,4.54c-.14,1.42-.21,2.81-.21,4.16a28.72,28.72,0,0,0,.33,4.52,30.79,30.79,0,0,0,.83,3.77,19.88,19.88,0,0,0,1.14,3.05,24.4,24.4,0,0,0,1.26,2.34,20.48,20.48,0,0,0,3.49,4.13,22.27,22.27,0,0,0,4.35,3.09,21.22,21.22,0,0,0,5,1.94,23.17,23.17,0,0,0,5.64.67h1.91q24.29-.09,24.29-23.09v-1.91a12.09,12.09,0,0,0,1.26,1,6,6,0,0,0,1.35.64,8,8,0,0,0,1.72.35,23.09,23.09,0,0,0,2.42.11h14.88a26.19,26.19,0,0,0,7.24-.92,14.68,14.68,0,0,0,5.49-2.86,12.84,12.84,0,0,0,4.89,2.82,20.42,20.42,0,0,0,6.43,1h9.32a93.81,93.81,0,0,0,10.67-.56,50.44,50.44,0,0,0,8.81-1.77c.31.17.68.36,1.12.56l1.29.6c.47.23,1,.45,1.45.67a25,25,0,0,0,6.51,2.26,33.28,33.28,0,0,0,6.17.6,24,24,0,0,0,6.47-.83,18.82,18.82,0,0,0,5.22-2.32,16,16,0,0,0,3.88-3.57,15.38,15.38,0,0,0,2.42-4.56,15.76,15.76,0,0,0,.6-8.1A17.87,17.87,0,0,0,1177.92,469Zm-25.24,6.55a8,8,0,0,1-1.43,2.17,10.64,10.64,0,0,1-2.09,1.76,20.4,20.4,0,0,1-2.49,1.41c-1.27-.69-2.38-1.34-3.33-2a14.1,14.1,0,0,1-2.41-1.92,6.76,6.76,0,0,1-1.45-2.18,7.16,7.16,0,0,1-.48-2.71,5.19,5.19,0,0,1,.58-2.37,6.76,6.76,0,0,1,1.58-2,7.81,7.81,0,0,1,2.3-1.34,7.57,7.57,0,0,1,2.71-.5,7,7,0,0,1,2.18.41,7.52,7.52,0,0,1,2.3,1.29,7.32,7.32,0,0,1,1.82,2.2,6.09,6.09,0,0,1,.75,3.06A6.45,6.45,0,0,1,1152.68,475.51Z" transform="translate(-61.74 -55.2)"/><polygon class="cls-1" points="1263.67 391.54 1256.54 384.41 1249.66 391.54 1256.62 398.58 1263.67 391.54"/><polygon class="cls-1" points="1246.26 391.58 1239.13 384.45 1232.29 391.58 1239.25 398.62 1246.26 391.58"/><polygon class="cls-1" points="1290.73 386.89 1283.11 379.27 1275.65 386.81 1283.19 394.44 1290.73 386.89"/><path class="cls-1" d="M1357.76,473.72c-.12-1.21-.29-2.46-.5-3.75s-.42-2.56-.66-3.83-.46-2.43-.68-3.46-.42-1.92-.6-2.63-.3-1.18-.36-1.37l-9.74,2.94c.11.41.27,1,.46,1.76s.39,1.6.58,2.53l.6,2.94c.21,1,.39,2,.56,3s.3,1.93.39,2.8a19.92,19.92,0,0,1,.15,2.22,7.16,7.16,0,0,1-.71,3.46,5.27,5.27,0,0,1-1.63,1.88,4.65,4.65,0,0,1-1.87.77,9.44,9.44,0,0,1-1.43.14h-15.87c-.25,0-.72,0-1.41-.1a6.23,6.23,0,0,1-2.09-.62,5.41,5.41,0,0,1-1.89-1.58,4.63,4.63,0,0,1-.83-2.92V464.81H1310v13.43a6.37,6.37,0,0,1-.23,1.7,3.25,3.25,0,0,1-1,1.58,6,6,0,0,1-2.28,1.18,14.19,14.19,0,0,1-4,.47h-41.79l-.29,10.28c2,.09,3.85.23,5.66.44a38.11,38.11,0,0,1,5.06.91,23,23,0,0,1,4.19,1.49,10.3,10.3,0,0,1,3,2.18,5.12,5.12,0,0,1-1.53,2.92,12.5,12.5,0,0,1-3.44,2.38,20.48,20.48,0,0,1-4.89,1.62,28.63,28.63,0,0,1-5.89.58h-10.61a15.9,15.9,0,0,1-7.32-1.68,12.74,12.74,0,0,1-5.2-4.83,18.65,18.65,0,0,1-2.65-10.19,34.85,34.85,0,0,1,.25-4.21,30.56,30.56,0,0,1,.85-4.35c.4-1.51.92-3.1,1.55-4.79s1.44-3.55,2.41-5.6l-9.21-4.43c-1.16,2.4-2.13,4.64-2.92,6.69a55.42,55.42,0,0,0-1.91,5.93,42.71,42.71,0,0,0-1,5.53,46.82,46.82,0,0,0-.31,5.43,28.89,28.89,0,0,0,4.1,15.55,24.84,24.84,0,0,0,4,4.74,24.33,24.33,0,0,0,5,3.57,25.73,25.73,0,0,0,5.84,2.26,26.63,26.63,0,0,0,6.51.79h10.61a41.82,41.82,0,0,0,10.18-1.21,29.89,29.89,0,0,0,8.39-3.4,18.23,18.23,0,0,0,5.72-5.32,12.22,12.22,0,0,0,2.11-7,8.31,8.31,0,0,0-.62-3,13.78,13.78,0,0,0-1.57-3h15.67a26.06,26.06,0,0,0,7.23-.92,14.68,14.68,0,0,0,5.49-2.86,12.84,12.84,0,0,0,4.89,2.82,20.42,20.42,0,0,0,6.43,1H1342a17.2,17.2,0,0,0,5.7-1,14.9,14.9,0,0,0,8.81-8.19,17.85,17.85,0,0,0,1.41-7.39A30.45,30.45,0,0,0,1357.76,473.72Z" transform="translate(-61.74 -55.2)"/><polygon class="cls-1" points="1368.68 391.54 1361.56 384.41 1354.67 391.54 1361.64 398.58 1368.68 391.54"/><polygon class="cls-1" points="1351.28 391.58 1344.15 384.45 1337.31 391.58 1344.27 398.62 1351.28 391.58"/><polygon class="cls-1" points="1399.77 390.62 1392.14 383 1384.68 390.54 1392.23 398.17 1399.77 390.62"/><polygon class="cls-1" points="1426.21 453.79 1433.18 460.84 1440.22 453.79 1433.1 446.67 1426.21 453.79"/><polygon class="cls-1" points="1408.85 453.84 1415.81 460.88 1422.82 453.84 1415.69 446.71 1408.85 453.84"/><path class="cls-1" d="M1502.24,470c-.21-1.28-.43-2.56-.67-3.83s-.46-2.43-.68-3.46-.42-1.92-.6-2.63-.3-1.18-.35-1.37l-9.74,2.94c.11.41.26,1,.45,1.76s.39,1.6.58,2.53.4,1.91.6,2.94.4,2,.56,3,.3,1.93.4,2.8.14,1.61.14,2.22a7.17,7.17,0,0,1-.7,3.46,5.29,5.29,0,0,1-1.64,1.88,4.61,4.61,0,0,1-1.86.77,9.54,9.54,0,0,1-1.44.14h-19.6c-.25,0-.72,0-1.41-.1a6.23,6.23,0,0,1-2.09-.62,5.41,5.41,0,0,1-1.89-1.58,4.63,4.63,0,0,1-.83-2.92V464.81h-10.28v13.43a6.78,6.78,0,0,1-.22,1.7,3.35,3.35,0,0,1-1,1.58,6,6,0,0,1-2.28,1.18,14.19,14.19,0,0,1-4,.47h-12.19c-.24,0-.71,0-1.41-.1a6.3,6.3,0,0,1-2.09-.62,5.47,5.47,0,0,1-1.88-1.58,4.57,4.57,0,0,1-.83-2.92V464.81H1415v13.43a6.81,6.81,0,0,1-.23,1.7,3.27,3.27,0,0,1-1,1.58,6,6,0,0,1-2.28,1.18,14.1,14.1,0,0,1-4,.47h-13.88a7.64,7.64,0,0,1-1.37-.2,6.53,6.53,0,0,1-2.05-.85,6.17,6.17,0,0,1-1.87-1.81,5.23,5.23,0,0,1-.8-3.06v-12.4h-10.33V490.1a23.93,23.93,0,0,1-.91,7.1,11.12,11.12,0,0,1-2.78,4.75,10.9,10.9,0,0,1-4.76,2.65,25,25,0,0,1-6.88.83h-5.18v10.32h5.18a28.51,28.51,0,0,0,10.15-1.7,22.74,22.74,0,0,0,7.77-4.78,23.24,23.24,0,0,0,5.21-7.44,30.72,30.72,0,0,0,2.44-9.7,7.28,7.28,0,0,0,3,1.16,23.75,23.75,0,0,0,2.75.19v0h14.34a26.19,26.19,0,0,0,7.24-.92,14.68,14.68,0,0,0,5.49-2.86,12.69,12.69,0,0,0,4.89,2.82,20.36,20.36,0,0,0,6.42,1h12.19a26.06,26.06,0,0,0,7.23-.92,14.65,14.65,0,0,0,5.5-2.86,12.69,12.69,0,0,0,4.89,2.82,20.31,20.31,0,0,0,6.42,1H1487a17.2,17.2,0,0,0,5.7-1,14.9,14.9,0,0,0,8.81-8.19,17.85,17.85,0,0,0,1.41-7.39c0-.92-.06-2-.18-3.2S1502.45,471.26,1502.24,470Z" transform="translate(-61.74 -55.2)"/><rect class="cls-1" x="1454.76" y="378.52" width="10.32" height="59.77"/><path class="cls-1" d="M1623.86,492.71a22.34,22.34,0,0,1-.56,5.22,8.89,8.89,0,0,1-2.09,4,9.85,9.85,0,0,1-4.29,2.59,23.2,23.2,0,0,1-7.15.91h-8.42a14.81,14.81,0,0,1-7.19-1.76,14.59,14.59,0,0,1-5.24-4.7,18.43,18.43,0,0,1-2-4.66,20.58,20.58,0,0,1-.7-5.41,30.38,30.38,0,0,1,.27-4.13,27.8,27.8,0,0,1,.89-4.1,43.23,43.23,0,0,1,1.61-4.54q1-2.4,2.49-5.43l-9.32-4.44q-1.71,3.52-2.89,6.47a50.62,50.62,0,0,0-1.9,5.64,38.6,38.6,0,0,0-1.06,5.26A41.71,41.71,0,0,0,1576,489a31.31,31.31,0,0,0,1.08,8.27,27.63,27.63,0,0,0,3.06,7.19,24.11,24.11,0,0,0,4,4.76,24.65,24.65,0,0,0,5,3.57,25.68,25.68,0,0,0,12.16,3h8.42q12.18,0,18.3-5.77t6.11-17.32v-27.9h-10.32Z" transform="translate(-61.74 -55.2)"/><polygon class="cls-1" points="1553.87 406.46 1546.24 398.83 1538.78 406.38 1546.33 414 1553.87 406.46"/><polygon class="cls-1" points="1645.21 454.04 1652.17 461.09 1659.22 454.04 1652.09 446.91 1645.21 454.04"/><polygon class="cls-1" points="1627.84 454.08 1634.81 461.13 1641.81 454.08 1634.68 446.95 1627.84 454.08"/><path class="cls-1" d="M1799,469.76c-.2-1.25-.43-2.5-.68-3.75s-.49-2.37-.73-3.4-.43-1.87-.6-2.56-.27-1.14-.33-1.33l-9.74,3.19c.11.41.26,1,.43,1.7s.37,1.52.56,2.4.39,1.82.58,2.8.37,1.95.52,2.9.28,1.86.38,2.72a21.58,21.58,0,0,1,.14,2.2,7.7,7.7,0,0,1-.66,3.48,5.7,5.7,0,0,1-1.58,2,5.18,5.18,0,0,1-1.84.91,6.72,6.72,0,0,1-1.47.23c-2.46,0-4.24-.54-5.33-1.6s-1.64-2.73-1.64-5V464.85h-10.28v11.78a7.4,7.4,0,0,1-.7,3.5,5.75,5.75,0,0,1-1.64,2,5,5,0,0,1-1.86.85,8.28,8.28,0,0,1-1.43.18c-2.44,0-4.18-.52-5.25-1.55s-1.59-2.69-1.59-4.95V464.85H1744v11.94a7.23,7.23,0,0,1-.71,3.5,5.4,5.4,0,0,1-1.64,1.91,4.72,4.72,0,0,1-1.86.81,8.75,8.75,0,0,1-1.43.16h-13.68c-.25,0-.72,0-1.41-.1a6.23,6.23,0,0,1-2.09-.62,5.5,5.5,0,0,1-1.89-1.58,4.63,4.63,0,0,1-.83-2.92V464.81h-10.28v13.43a6.78,6.78,0,0,1-.22,1.7,3.35,3.35,0,0,1-1,1.58,6,6,0,0,1-2.28,1.18,14.14,14.14,0,0,1-4,.47h-19.4v-5.63a33.31,33.31,0,0,0-1-8.15,18.23,18.23,0,0,0-3-6.49,14.2,14.2,0,0,0-5.26-4.29,17.7,17.7,0,0,0-7.73-1.55,17.09,17.09,0,0,0-6.8,1.35,17.85,17.85,0,0,0-5.64,3.83c-.58.64-1.18,1.38-1.82,2.22a15.16,15.16,0,0,0-1.72,3,20.52,20.52,0,0,0-1.26,3.92,22.82,22.82,0,0,0-.5,5.08,20.24,20.24,0,0,0,.77,5.88,15.56,15.56,0,0,0,2.07,4.46,13.2,13.2,0,0,0,3.06,3.17,17.56,17.56,0,0,0,3.76,2.09,18.12,18.12,0,0,0,4.14,1.14,28,28,0,0,0,4.23.34h6.38a13.48,13.48,0,0,1-1,5,9.58,9.58,0,0,1-2.64,3.28,10.85,10.85,0,0,1-2.63,1.63,17.36,17.36,0,0,1-3.52,1.12,37.3,37.3,0,0,1-4.6.66c-1.73.16-3.7.23-5.91.23v10.32a74.72,74.72,0,0,0,7.73-.35,38.75,38.75,0,0,0,6.2-1.1,27.21,27.21,0,0,0,5-1.84,23.36,23.36,0,0,0,4.15-2.59,19.13,19.13,0,0,0,5.49-6.8,24,24,0,0,0,2-9.57h19.44a26.06,26.06,0,0,0,7.23-.92,14.65,14.65,0,0,0,5.5-2.86,12.69,12.69,0,0,0,4.89,2.82,20.31,20.31,0,0,0,6.42,1h13.68a17.39,17.39,0,0,0,5.72-1,14.09,14.09,0,0,0,5.06-3.07q4.42,3.94,12,3.94a17.52,17.52,0,0,0,5.65-.93,13.9,13.9,0,0,0,5-3.05q4.47,4.06,12.19,4.07a17.21,17.21,0,0,0,5.68-1.08,15,15,0,0,0,5-3.13,15.84,15.84,0,0,0,3.63-5.27,18.38,18.38,0,0,0,1.39-7.39,28,28,0,0,0-.21-3.18C1799.41,472.25,1799.24,471,1799,469.76Zm-128.1,13.41h-6.38a10.92,10.92,0,0,1-2.82-.37,7.83,7.83,0,0,1-2.55-1.18,6.36,6.36,0,0,1-1.86-2.09,6.19,6.19,0,0,1-.73-3.11q0-4.65,2.07-6.84a7.31,7.31,0,0,1,5.6-2.2,7.39,7.39,0,0,1,1.08.11,5,5,0,0,1,1.38.43,6,6,0,0,1,1.5,1,6.1,6.1,0,0,1,1.36,1.78,10.6,10.6,0,0,1,1,2.8,18.73,18.73,0,0,1,.37,4Z" transform="translate(-61.74 -55.2)"/><rect class="cls-1" x="1752.75" y="378.52" width="10.32" height="59.77"/><path class="cls-1" d="M1869.46,462.9a14.2,14.2,0,0,0-5.26-4.29,17.7,17.7,0,0,0-7.73-1.55,17.09,17.09,0,0,0-6.8,1.35,17.85,17.85,0,0,0-5.64,3.83c-.58.64-1.18,1.38-1.82,2.22a15.16,15.16,0,0,0-1.72,3,20.52,20.52,0,0,0-1.26,3.92,22.82,22.82,0,0,0-.5,5.08,20.24,20.24,0,0,0,.77,5.88,15.56,15.56,0,0,0,2.07,4.46,13.2,13.2,0,0,0,3.06,3.17,17.56,17.56,0,0,0,3.76,2.09,18.12,18.12,0,0,0,4.14,1.14,28,28,0,0,0,4.23.34h6.38a13.27,13.27,0,0,1-1.06,5,9.43,9.43,0,0,1-2.63,3.28,10.85,10.85,0,0,1-2.63,1.63,17.36,17.36,0,0,1-3.52,1.12,37.3,37.3,0,0,1-4.6.66c-1.73.16-3.7.23-5.91.23v10.32a74.72,74.72,0,0,0,7.73-.35,38.75,38.75,0,0,0,6.2-1.1,27.21,27.21,0,0,0,5-1.84,23.36,23.36,0,0,0,4.15-2.59,19.11,19.11,0,0,0,5.68-7.23,25.71,25.71,0,0,0,1.86-10.39V477.54a33.31,33.31,0,0,0-1-8.15A18.23,18.23,0,0,0,1869.46,462.9Zm-6.32,20.27h-6.38a10.92,10.92,0,0,1-2.82-.37,7.83,7.83,0,0,1-2.55-1.18,6.36,6.36,0,0,1-1.86-2.09,6.19,6.19,0,0,1-.73-3.11q0-4.65,2.07-6.84a7.31,7.31,0,0,1,5.6-2.2,7.39,7.39,0,0,1,1.08.11,5,5,0,0,1,1.38.43,6,6,0,0,1,1.5,1,6.1,6.1,0,0,1,1.36,1.78,10.6,10.6,0,0,1,1,2.8,18.73,18.73,0,0,1,.37,4Z" transform="translate(-61.74 -55.2)"/><path class="cls-1" d="M1898.65,490.1a24.27,24.27,0,0,1-.91,7.1A11.22,11.22,0,0,1,1895,502a10.88,10.88,0,0,1-4.77,2.65,24.93,24.93,0,0,1-6.88.83h-5.14v10.32h5.14A29.74,29.74,0,0,0,1893.8,514a22.47,22.47,0,0,0,7.92-4.95,23,23,0,0,0,5.14-7.79A30.92,30.92,0,0,0,1909,491V464.85h-10.32Z" transform="translate(-61.74 -55.2)"/><path class="cls-1" d="M1936.72,490.1a23.93,23.93,0,0,1-.91,7.1A11.12,11.12,0,0,1,1933,502a10.9,10.9,0,0,1-4.76,2.65,25,25,0,0,1-6.88.83h-5.14v10.32h5.14a29.68,29.68,0,0,0,10.48-1.74,22.29,22.29,0,0,0,7.92-4.95,22.81,22.81,0,0,0,5.14-7.79A30.67,30.67,0,0,0,1947,491V464.85h-10.32Z" transform="translate(-61.74 -55.2)"/><polygon class="cls-1" points="1872.45 391.7 1879.99 399.33 1887.54 391.79 1879.91 384.16 1872.45 391.7"/><path class="cls-1" d="M1977.28,490.1a23.93,23.93,0,0,1-.91,7.1,11.12,11.12,0,0,1-2.78,4.75,10.9,10.9,0,0,1-4.76,2.65,25,25,0,0,1-6.88.83h-5.14v10.32H1962a29.68,29.68,0,0,0,10.48-1.74,22.29,22.29,0,0,0,7.92-4.95,22.81,22.81,0,0,0,5.14-7.79,30.92,30.92,0,0,0,2.12-10.3V464.85h-10.33Z" transform="translate(-61.74 -55.2)"/><polygon class="cls-1" points="2078.65 453.17 2086.19 460.8 2093.74 453.25 2086.11 445.63 2078.65 453.17"/><rect class="cls-1" x="2203.02" y="430.09" width="9.38" height="9.26" transform="translate(277.49 1633.21) rotate(-45)"/><polygon class="cls-1" points="2154.75 398.21 2161.72 391.16 2154.63 384.12 2147.5 391.25 2154.75 398.21"/><polygon class="cls-1" points="2143.93 391.33 2136.89 384.28 2129.84 391.41 2136.89 398.46 2143.93 391.33"/><path class="cls-1" d="M2234.32,473.45c-.14-1.2-.31-2.43-.52-3.69s-.43-2.5-.68-3.75-.49-2.37-.73-3.4-.43-1.87-.6-2.56-.28-1.14-.33-1.33l-9.74,3.19c.11.41.25,1,.43,1.7s.37,1.52.56,2.4.39,1.82.58,2.8.37,1.95.52,2.9.28,1.86.37,2.72a19.3,19.3,0,0,1,.15,2.2,7.7,7.7,0,0,1-.66,3.48,5.81,5.81,0,0,1-1.58,2,5.18,5.18,0,0,1-1.84.91,6.8,6.8,0,0,1-1.47.23c-2.46,0-4.24-.54-5.33-1.6s-1.64-2.73-1.64-5V464.85h-10.28v11.78a7.4,7.4,0,0,1-.7,3.5,5.75,5.75,0,0,1-1.64,2,5,5,0,0,1-1.86.85,8.26,8.26,0,0,1-1.44.18q-3.64,0-5.24-1.55t-1.59-4.95V464.85h-10.33v11.94a7.24,7.24,0,0,1-.7,3.5,5.5,5.5,0,0,1-1.64,1.91,4.72,4.72,0,0,1-1.86.81,8.75,8.75,0,0,1-1.43.16h-10.16c-.25,0-.72,0-1.41-.1a6.23,6.23,0,0,1-2.09-.62,5.59,5.59,0,0,1-1.89-1.58,4.63,4.63,0,0,1-.82-2.92V464.81h-10.28v13.43a6.81,6.81,0,0,1-.23,1.7,3.27,3.27,0,0,1-1,1.58,6,6,0,0,1-2.28,1.18,14.14,14.14,0,0,1-4,.47h-7.21a12.63,12.63,0,0,1-4.77-.85,14.81,14.81,0,0,1-4-2.46,29.68,29.68,0,0,1-3.83-4q-1.9-2.34-4.19-5.37l-7.77-10.38q-3.87-5.16-7.77-10.39l31.46-14.54-4.23-9.45-36,17.45-1.74,8.41q3.11,3.86,6.16,7.61t5.47,7.11a61,61,0,0,1,3.94,6.09,10,10,0,0,1,1.51,4.52,5,5,0,0,1-1.12,2.94,7,7,0,0,1-2.7,1.93,15.3,15.3,0,0,1-4,1,37.61,37.61,0,0,1-5.05.31h-12.4a19.36,19.36,0,0,1-3.21-.31,12.12,12.12,0,0,1-3.6-1.2,11.32,11.32,0,0,1-3.26-2.53,9.75,9.75,0,0,1-2.15-4.33l-7.55-29.35-10.11,2.37,1,4a60.33,60.33,0,0,0-7.6,3.13,27.9,27.9,0,0,0-6.49,4.35,19.93,19.93,0,0,0-4.52,6,19,19,0,0,0-.39,14.79,15.51,15.51,0,0,0,3.54,5.21,15.81,15.81,0,0,0,5.2,3.29,17,17,0,0,0,6.28,1.16,18.92,18.92,0,0,0,3.73-.39,19.27,19.27,0,0,0,3.78-1.18,16.17,16.17,0,0,0,3.37-2,10.58,10.58,0,0,0,2.55-2.72,15.41,15.41,0,0,0,3.22,4.52,17.06,17.06,0,0,0,4.49,3.13,22.93,22.93,0,0,0,5.52,1.82,31.21,31.21,0,0,0,5.09.58v0h12.94a36.41,36.41,0,0,0,6.3-.4,27.17,27.17,0,0,0,6-1.59,18.26,18.26,0,0,0,5-2.95,10.58,10.58,0,0,0,3.17-4.43c1.25,1.41,2.47,2.68,3.67,3.83a19.31,19.31,0,0,0,8.81,4.85,25.83,25.83,0,0,0,6.22.68h7.33a26.06,26.06,0,0,0,7.23-.92,14.65,14.65,0,0,0,5.5-2.86,12.69,12.69,0,0,0,4.89,2.82,20.31,20.31,0,0,0,6.42,1h10.16a17.39,17.39,0,0,0,5.72-1,14,14,0,0,0,5-3.07q4.44,3.94,12,3.94a17.58,17.58,0,0,0,5.66-.93,13.9,13.9,0,0,0,5-3.05q4.47,4.06,12.19,4.07a17.15,17.15,0,0,0,5.67-1.08,14.89,14.89,0,0,0,5.06-3.13,15.84,15.84,0,0,0,3.63-5.27,18.38,18.38,0,0,0,1.39-7.39A28,28,0,0,0,2234.32,473.45Zm-178.07-.56a6.52,6.52,0,0,1-2.65,4.42,12.47,12.47,0,0,1-5.18,1.84,6.75,6.75,0,0,1-2.72-.14,7.48,7.48,0,0,1-2.44-1.14,6.22,6.22,0,0,1-1.79-2,5.49,5.49,0,0,1-.68-2.74,8.1,8.1,0,0,1,3.42-6.61,32.7,32.7,0,0,1,10.05-4.79c.36,1.28.7,2.42,1,3.44s.57,2,.76,2.87a17.07,17.07,0,0,1,.38,2.5A8.35,8.35,0,0,1,2056.25,472.89Z" transform="translate(-61.74 -55.2)"/></svg>