<svg id="Layer_6" data-name="Layer 6" xmlns="http://www.w3.org/2000/svg" viewBox="0 0 2085.91 468.28"><defs><style>.cls-1{fill:#5b5b5d;}.cls-2{fill:#f9a434;}</style></defs><title>jabama</title><path class="cls-1" d="M1170.35,427.49c38.32,33.7,84.2,15.29,93.07-34.45,5.72-32.13,6.13-64.25-2.23-96-8.14-30.89-26-45.89-52.42-45.51-25.19.35-42.3,15.89-50.57,45.95-5.94,21.57-5.65,43.65-5,65.68,1,30.81-8.88,58-26.22,83-15.91,22.92-37.37,38.27-65.25,39.54-53.68,2.43-107.68,4.83-161.12-.93-57.41-6.2-91.14-44.68-91.79-101.9-1-84.44-.15-168.9-.43-253.34,0-8.87,2.33-12,11.66-12.3,36.5-1.18,36.49-1.52,36.49,34.71q0,108.1,0,216.23c0,52.46,18.7,71.38,70.52,71.37h108.11c42.23,0,62.88-18.49,67-61.08,2.6-27.23.86-54.73,6.17-81.86,12.91-66.06,62.75-99,128.19-83.6,37.72,8.87,59.92,34.85,71.33,70,14.67,45.24,14.15,91.41-.13,136.53-19.46,61.43-95.41,87.93-150.91,54.09-6.9-4.21-10.68-7.31-4.34-15.78C1159.47,448.55,1164.46,437.73,1170.35,427.49Z" transform="translate(-165.36 -116.9)"/><path class="cls-1" d="M2056.43,487c-57.56,0-115.12.12-172.68-.06-71-.21-112.69-41.69-112.8-112.19-.11-80.69.23-161.39-.31-242.07-.08-11.93,2.77-15.69,15.09-15.52,33.6.48,33.32-.11,33.24,33.17q-.27,113,0,225.94c.13,40.84,19.92,62.57,60.86,63,103.8,1.15,207.63.75,311.44,1.27,8.84,0,12.33-2.18,12-11.63-3.11-86.15-47.91-144.85-131.23-151-8.08-.6-10-3.4-9.7-10.62,1.34-37.88-7.71-35.94,33.56-31.54,75.42,8.05,131.92,62.46,149.13,142.08,7.12,33,5.81,66.29,6.24,99.61.15,11.61-7.36,9.58-14.09,9.58Q2146.8,487.06,2056.43,487Z" transform="translate(-165.36 -116.9)"/><path class="cls-1" d="M1369.26,259.17c0-43,.27-86.06-.22-129.08-.11-9.71,2.3-12.8,12.48-12.88,35.59-.26,35.59-.7,35.59,35.1q0,110.54,0,221.06c0,46.05,20,66.13,65.55,66.18,42.49.05,85,.15,127.47,0,39-.16,59.7-20.29,60.52-59.57.59-28.49.61-57-.09-85.51-.26-10.8,2-14.83,13.91-14.7,35.07.38,35.44-.19,35,35.1-.42,31.67,2.79,63.52-3.25,94.94-8.25,42.93-34.38,68.5-77.77,74.48-44.93,6.2-90.23,1.69-135.35,2.67-15,.33-30,.55-45.06-1.83-54.62-8.68-87.87-46.09-88.64-101.69C1368.8,342,1369.26,300.59,1369.26,259.17Z" transform="translate(-165.36 -116.9)"/><path class="cls-2" d="M411.63,521.28c-92.23-2.36-171.75-36.45-240.78-96.65-2.75-2.39-7.8-4.83-4.29-9.48,8.51-11.3,17-22.71,26.67-33,5.17-5.49,9.1,1.95,12.4,4.77,32.61,27.87,68.26,50.41,108.9,64.76,95.72,33.8,183.82,20.15,264.22-42,4-3.12,7.94-6.4,11.92-9.6,26.47-21.26,25.83-20.69,48.54,5.06,9.8,11.12,7.65,15.68-2.92,24.61-49.7,42-103.67,74.94-168.85,86.34A313.34,313.34,0,0,1,411.63,521.28Z" transform="translate(-165.36 -116.9)"/><path class="cls-1" d="M284.41,211.21c-3.28,2.57-6.41,4.78-9.25,7.3-18.2,16.19-36.76,32-54.33,48.87-7.69,7.39-12.81,7.71-18.5-1.16a15.94,15.94,0,0,0-3.28-3.88c-13.7-10.8-13.3-19.21,1.06-30.75,26-20.91,50.51-43.8,75-66.56,7.11-6.61,11.34-6.14,18.07,0,26.74,24.48,53.64,48.82,81.16,72.41,8.37,7.18,8.28,12,.51,18.62a48.62,48.62,0,0,0-9,10.17c-6,9.13-11.17,8-18.62.92-17.24-16.38-35.31-31.88-53.07-47.71C291.24,216.85,288.18,214.39,284.41,211.21Z" transform="translate(-165.36 -116.9)"/><path class="cls-1" d="M2156.61,558.06c0,26.37,0,26.37-26.1,26.37-21.74,0-21.74,0-21.76-22.25,0-29,0-29.16,26.56-28.92C2160.32,533.49,2156.16,529.76,2156.61,558.06Z" transform="translate(-165.36 -116.9)"/><path class="cls-1" d="M1715.58,559.28c0,25.85,0,25.85-25.88,25.89-22.12,0-22.12,0-22.11-23.39,0-28.61,0-28.61,25.21-28.59C1715.58,533.2,1715.58,533.2,1715.58,559.28Z" transform="translate(-165.36 -116.9)"/><path class="cls-1" d="M616.52,195.44H571.83a8.86,8.86,0,0,1-8.85-8.86V141.89a11.75,11.75,0,0,0-11.75-11.75H533.86a11.75,11.75,0,0,0-11.75,11.75v44.69a8.86,8.86,0,0,1-8.86,8.86H468.56a11.75,11.75,0,0,0-11.75,11.75v17.36a11.76,11.76,0,0,0,11.75,11.76h44.69a8.86,8.86,0,0,1,8.86,8.85v44.69a11.76,11.76,0,0,0,11.75,11.76h17.36A11.76,11.76,0,0,0,563,289.85V245.16a8.85,8.85,0,0,1,8.85-8.85h44.69a11.76,11.76,0,0,0,11.76-11.76V207.19A11.75,11.75,0,0,0,616.52,195.44Z" transform="translate(-165.36 -116.9)"/></svg>