<svg id="Layer_5" data-name="Layer 5" xmlns="http://www.w3.org/2000/svg" viewBox="0 0 1660.65 609.41"><defs><style>.cls-1{fill:#58575c;}.cls-2{fill:#146820;}</style></defs><title>jainjas</title><path class="cls-1" d="M533.92,314c-19.15,0-38.31-.33-57.44.17-8.91.23-12.54-2.33-12.44-11.86.43-38.79.34-77.6.06-116.39-.05-7.66,2.11-10.74,10.23-10.68q59.71.48,119.42,0c7.13,0,9.71,2.19,9.66,9.51q-.42,59.72,0,119.42c.06,8.11-2.74,10.17-10.53,10C573.23,313.63,553.57,314,533.92,314Z" transform="translate(-313.44 -25.56)"/><path class="cls-1" d="M464.36,94.67c0-19.14.28-38.29-.13-57.43-.17-8.08,1.85-11.75,10.85-11.66q58.95.55,117.9,0c7.79-.07,10.5,2.25,10.43,10.25-.33,39.3-.38,78.6.06,117.9.1,8.34-2.87,9.94-10.44,9.88-38.79-.33-77.59-.49-116.38.09-10.31.15-12.85-3.56-12.54-13.08.59-18.63.17-37.28.17-55.93Z" transform="translate(-313.44 -25.56)"/><path class="cls-1" d="M451.8,547.67c0,19.15-.35,38.3.16,57.43.23,8.39-2.22,11.54-11,11.45q-58.18-.59-116.38,0c-9.09.1-11.15-4-11.12-11.69.12-38.8.26-77.59,0-116.39-.06-8.5,3-11.49,11.41-11.43,38.79.28,77.59.36,116.38,0,9-.08,11,3.64,10.79,11.72-.43,19.64-.14,39.29-.14,58.94Z" transform="translate(-313.44 -25.56)"/><path class="cls-1" d="M603.27,546.21c0,19.67-.26,39.35.16,59,.18,8.34-2.31,11.31-11.15,11.21q-57.49-.67-115,0c-9.44.1-13.48-2.12-13.33-12.51q.85-57.5.15-115c-.1-9.39,3.18-12.08,12.17-12,38.33.39,76.67.65,115,0,10.86-.19,12.37,4.22,12.14,13.26C602.91,508.87,603.25,527.54,603.27,546.21Z" transform="translate(-313.44 -25.56)"/><path class="cls-1" d="M535.34,326.65c19.16,0,38.33.28,57.48-.13,7.63-.16,10.68,1.82,10.59,10.12q-.57,59,0,118c.08,8.62-3.71,9.79-10.9,9.74-38.83-.26-77.66-.39-116.49,0-9.22.08-12.12-3.1-12-12.22q.63-56.72.09-113.46c-.09-9.18,3-12.43,12.22-12.19C496,327,515.67,326.64,535.34,326.65Z" transform="translate(-313.44 -25.56)"/><path class="cls-2" d="M1386.64,247.56c-68.15,0-136.31-.46-204.45.33-17.26.2-25.25-3.08-24.84-22.84,1.21-59.27.54-118.59.47-177.89,0-10.94-1.39-20.6,15.52-20.49,15.46.09,19.53,5.53,19.33,20-.66,46.9.49,93.83-.63,140.72-.44,18.81,3.78,27.31,24.7,26.36,34.45-1.57,69-.75,103.54-.2,12.92.2,19.84-2.84,18.91-17.66-1.1-17.64.87-35.5-.75-53-1.83-19.74-8.92-36-33.59-36.38S1272.47,121.86,1271,142c-1.16,15.36-1.19,28.57-22.74,25.64-9.67-1.31-13.4-4.14-13.85-14.52-2.52-58.62,47.63-94,101.76-71,20,8.54,33.54,23.38,35.55,45.78,2,22.87,3.31,45.87,3.58,68.82.15,12.59,4.46,18.17,17.1,16.64a39.17,39.17,0,0,1,5.31-.09c49.85.78,50,.78,51.21-48.74.3-12.24-.11-22.52,17.44-22.64,17.76-.12,17.13,10.43,17.48,22.55,1.41,49,1.54,49,51,48.79,43.92-.17,43.92-.17,43.92-45.25,0-16.81.45-33.64-.11-50.44-.43-13,3.66-19.49,17.94-19.63,14.59-.14,18,6.81,17.87,19.62-.4,35.4-1.47,70.87.36,106.18,1.11,21.55-8,24.41-26.35,24.17C1521.18,247,1453.91,247.55,1386.64,247.56Z" transform="translate(-313.44 -25.56)"/><path class="cls-2" d="M1018.05,218.2c-27,41.09-60.89,32.61-97.6,14.58-1.35,9.93-2.39,17.55-3.41,25.18-6.18,46.26-26.74,64.71-73.85,65.66-22.11.45-44.26.91-66.35.12-39.06-1.4-62.47-24.22-64.41-63.1-1.36-27.38-.7-54.85-1.77-82.25-.53-13.8,4.65-19,18.46-17.88,12.3,1,24.75.14,37.14.21,8.9.05,18.09-1.08,18.32,12.65.21,11.87-3.21,19.69-16.31,17.66-22.11-3.43-23.63,8.57-23.47,26.23.64,74,1.67,75.48,75.8,75.48,6.2,0,12.39.17,18.58,0,32-.94,42.65-11.06,43.16-43.82.66-42.45.2-84.93.22-127.39,0-11.37-2.6-23.08,16.18-23,16.73.1,21.37,6.55,20.55,22.17a524,524,0,0,0,0,61c1.33,20.59,7.41,37.8,34,37.4,26.39-.39,33-15.7,32.78-38.06-.16-19.46.21-38.93-.08-58.39-.19-13-1.15-24.65,18.25-24.24,17.89.38,16.72,11.11,16.57,23-.25,18.57.19,37.16-.13,55.73-.27,15.68,6.63,27.31,19.4,35.43,24.18,15.37,47.13,4.41,48.68-24,1.3-23.82.57-47.76.31-71.65-.12-11.35,2.47-18.43,16.14-18.27,13.11.15,19.68,4.12,19.28,18.33-.7,24.75-.28,49.53-.47,74.3-.18,23.57-5.8,44.86-30.87,53.17-24.13,8-47.25,6-65.65-14.49C1024.57,226.69,1022,223.08,1018.05,218.2Z" transform="translate(-313.44 -25.56)"/><path class="cls-2" d="M1755.88,137.22c0-30.95.58-61.93-.29-92.86-.42-14.83,6.48-17.45,19.15-17.48s16.67,5,16.55,17.32c-.49,49.52.39,99.06-.54,148.57-.31,16.14,4.08,21.59,20.79,21,35.33-1.33,70.75-1,106.11-.25,14.77.33,21.11-4.13,20-19.52-1.38-18.48-.49-37.14-2.11-55.59-1.78-20.33-12.37-32.2-34.55-31.74-21.47.45-29.43,13.24-31.32,32-1.58,15.71.34,33.61-25.06,29-6.89-1.26-10.56-2.61-11.85-10.73-6-37.93,17.47-73.41,53.49-79.28,45.74-7.46,77.63,12.67,84.75,54.46,5.67,33.34,1.57,67.11,3,100.65.51,11.72-5.21,15-16.14,15-61.91-.35-123.82-.51-185.72-.05-13.33.1-16.51-5.77-16.36-17.56C1756.19,199.13,1755.91,168.17,1755.88,137.22Z" transform="translate(-313.44 -25.56)"/><path class="cls-2" d="M1682.39,136.82c0,30.86-.61,61.74.28,92.58.4,14-4.85,18.16-18.26,18.56-14.7.45-17.43-6-17.32-18.92.52-60.84.38-121.69.15-182.53,0-11.66.32-19.72,16.29-19.8s19.24,6,18.84,20.19c-.84,29.95-.25,60-.25,89.92Z" transform="translate(-313.44 -25.56)"/><path class="cls-2" d="M1535,315.31c-8.8,0-17.65-.6-26.4.11-13.55,1.1-16-6.12-16-17.62s2.83-18.47,16.22-17.95c16.71.64,33.46.46,50.18.06,11.68-.27,20.23.45,20.27,16.28,0,15.52-6.19,20.46-20.54,19.26C1550.87,314.8,1542.9,315.33,1535,315.31Z" transform="translate(-313.44 -25.56)"/><path class="cls-2" d="M1912.9,277.66c19.87-4.34,20.07,7.73,20.83,22.49,1,20-10.43,19.06-24.64,20.09-18.94,1.38-17.79-9.52-18.82-22.54C1888.84,279.55,1896.55,274.25,1912.9,277.66Z" transform="translate(-313.44 -25.56)"/><path class="cls-2" d="M1313.23,277.36c15.46-2.76,21.87,2.74,21.62,19.47-.24,16-3.66,23.43-21.77,23.58-18.49.15-21.31-7.79-21.57-23.59C1291.24,280.11,1297.73,274.6,1313.23,277.36Z" transform="translate(-313.44 -25.56)"/><path class="cls-2" d="M1466.33,85c15.4-2.39,17,6.65,17.33,19,.4,13.45-6.07,15.92-17.56,16.39-13.37.55-19.28-3.71-19.15-17.8S1453.14,83.34,1466.33,85Z" transform="translate(-313.44 -25.56)"/><path class="cls-2" d="M1973.85,472c-.14-11.63-5.6-23.66-15.17-28-12.65-5.79-29.24-11.26-41,1.15-10.61,11.24-15.46,12.38-28.59,1.55-16.3-13.45-35.79-8.61-52,8.59-.07-13.52-8.41-10.7-15.41-10.36-9.71.49-5.94,8.13-6,12.72-.33,37.15-.23,74.32-.19,111.48,0,17.76.09,17.76,18.49,15.14,5.23-3.77,3.32-9.4,3.43-14.29.66-31.79-.64-63.62,1.79-95.38,8.09-10.18,18.37-19.92,31.4-15.06s11.83,19.15,11.82,31.39c0,30.92.38,61.84.61,92.75a3.94,3.94,0,0,0,.48,2.82c.61.94,1.72,1.49,12.69,1.35a22.55,22.55,0,0,0,6.11-.86,8.25,8.25,0,0,0,1.9-.67c3.27-1.89,2.29-9.37,2.08-10.85-1.87-51.46-1.88-78.09-.25-83h0c.19-3,.21-6.06.62-9.05,2-15.17,13.84-25.32,28.25-24.44,10.27.63,15.29,9,15.33,25.62.08,30.67.43,61.35.12,92-.09,8.93,4.24,11,11.82,11.27,7.83.25,11.92-2,11.83-10.91C1973.76,542,1974.25,507,1973.85,472Z" transform="translate(-313.44 -25.56)"/><path class="cls-2" d="M837.63,414a300.47,300.47,0,0,0-48.68-3c-7,.09-12.29-.2-12.14,9.87.14,9.34,3.36,12.57,12.07,11.32,9.61-1.39,11.5,3.55,11.29,12.05-.48,19.43-.19,38.87-.11,58.31.06,15.1,0,30.16-2.06,45.19-1.32,9.76-6.14,15.69-15.75,17.93-1.5.35-11.93,2.87-19.18-2.87-8.27-6.55-9.09-21.19-9.23-23.71-.22-4,.19-7.25-2.16-9.48-2.51-2.38-6.67-2.21-10.8-2a35.62,35.62,0,0,0-9,1.54c-.77,3.15-5.45,23.78,7.39,40.39,14.52,18.79,41.49,19.5,58.26,12.57,22.82-9.42,26.26-29.77,26.62-50.93.48-27.64.3-55.29-.08-82.93-.13-10-.34-18.38,13.77-16.21,7.25,1.12,6.49-4.89,6.67-9.64C844.73,417.46,843.49,414.9,837.63,414Z" transform="translate(-313.44 -25.56)"/><path class="cls-2" d="M1434.43,504.5c-11.12-4.21-22.63-7.27-31.93-15.7-6.26-5.68-8.42-12.08-7-19.63,1.39-7.32,6.67-11.8,13.74-14.11,14.65-4.8,25,1.28,28,17.91,1.33,7.56,5,9.13,11.33,8.86,4.74-.2,10.59.55,11-6,.87-12.57-3.35-23.72-11.76-30.49a33.23,33.23,0,0,0-10.25-5.36c-5.86-2.18-16.69-5.09-31.55-2.74a36.87,36.87,0,0,0-19.37,8.14c-8.91,7.42-11.46,16.9-12.53,21.64-4.51,19.86.19,32.55,17.14,42.95,12.24,7.5,27.13,7.61,39.28,15.3,10.14,6.43,13.68,15.78,8.39,30.32-3.91,10.75-13.18,15.25-24.32,14.21S1394,563,1393.2,551.4c-.91-14.08-8-16.72-19.58-15.26-9.22,11.41-1.72,21.36,2.77,31.57,1.31,3,11.38,15.91,28.85,19.27,7.29,1.4,13,.53,17.72-.18,7.21-1.09,17.22-2.61,26.21-10.11,15.07-12.57,15.28-32.09,15.56-35.44C1466.18,524,1455.56,512.48,1434.43,504.5Z" transform="translate(-313.44 -25.56)"/><path class="cls-2" d="M1016.16,573.7q.18-60.16,0-120.32c0-1.43,1.2-6.5-1.61-9.31-.42-.42-1.27-1.13-4.27-1.87-4.81-1.18-10.36-2.55-14.37.66a10.58,10.58,0,0,0-3.6,6.22l.12,0c-.18,4.14-.28,8.46-.27,12.95s.14,9,.35,13.24c-.2,29.59-.32,59.19-.61,88.78-.19,19-.29,19,18.65,18.67C1017.83,583.1,1016.14,577.52,1016.16,573.7Z" transform="translate(-313.44 -25.56)"/><path class="cls-2" d="M1066.2,580.68c6.22.63,9,1.43,10.8-.36,1.31-1.34,1.37-3.44,1.48-7.13a34.29,34.29,0,0,0-.43-6.4c.57-29.32.4-58.66.5-88,0-11.84,7.06-19.63,17.37-22.63,13.87-4,22.85.65,28.76,12.13.15,31.08.43,64.49.43,95.58,0,17.29-2.69,18,2.81,18,1.88,0,3.6-.41,4.53-.09a23,23,0,0,0,10.52,1c9.43.61,7.51-6.61,7.54-11.67q.33-44.67,0-89.35c0-7.56,0-15.38-4.62-22.14-.68-2.36-.94-5-2.1-7.13-8-14.76-32.24-22.1-55.84-9.7-2.75.34-4.54,1.64-4.81,4.44-4,.75-4.76-3.26-7.15-4.87h.12c-8-7.54-15.45-7.18-22,1.05l-.06,112.66q0,3.17,0,6.33l-.13,17.67A117.12,117.12,0,0,1,1066.2,580.68Z" transform="translate(-313.44 -25.56)"/><path class="cls-2" d="M954.69,562.27c-3.69-12.24-1.56-24.81-2.12-37.22-.87-19.29,1.91-38.69-1.58-57.92a27.08,27.08,0,0,0-.11-6.23,31.57,31.57,0,0,0-.78-3.79,29.07,29.07,0,0,0-7.67-12.29c-5.41-5.06-11.58-6.95-18.29-7.53-8.57-.75-17.27-.05-25.91.13-23.47.48-31.68,7-36.61,29.58-1.3,5.93-4.87,13.47,5.45,15.23,8.69,1.48,16.84,1.68,16.7-11,0-3.26,1.81-6.57,2.93-9.81C891.29,448,902.42,450,912.63,450.8c12.19.92,15.09,12.33,16.36,20.35.19,1.2,1.5,12-5.33,18.78-2,2-3.95,2.92-7.58,4.59a70.64,70.64,0,0,1-17.43,5.41c-4.75.86-26.44,4.05-36.15,19.32-7,11-9,22.68-5.29,35.26a29.39,29.39,0,0,0,13.23,23.93c16.11,10.92,33.92,9.52,50.49-3.55,5.57-4.39,9.21-6.56,14.67.35,6.51,8.23,16.27,8.52,23.87,2.91C969.77,570.55,955,568.09,954.69,562.27Zm-41,1.16c-9.42,5.3-18.44,4.71-26.53-1.68-9.25-7.32-7.07-18.1-5.38-27.58a22.34,22.34,0,0,1,4.31-10c3.94-5.07,9.71-6.91,14.74-8.61a66.19,66.19,0,0,1,8.77-2.11c9.06-1.82,13.59-2.73,15.67-1.36,3.08,2,1.94,7.61,2.52,18.69C928.41,542.51,927.75,555.53,913.69,563.43Z" transform="translate(-313.44 -25.56)"/><path class="cls-2" d="M1646.35,535.33c-6.72,0-14.94-3-15.76,9.29-.56,8.26-3,16.93-10.44,22.65l-12.91,3.07a25,25,0,0,1-12.55-4.3c-8.28-5.84-9.82-15.59-12.53-34.69-1.31-9.17-3.34-24.31,0-40.22a108.92,108.92,0,0,1,4.43-14.89,97.59,97.59,0,0,1,5.71-12.27c13.38-10.22,23.33-8.37,36.3,6.73a42,42,0,0,1,3,6.06c2.93,7.38,1.52,10.09,4.09,12.37,4.31,3.83,12.89.3,13.45.12,2.75-.88,4.39-2.16,5.31-3.69,2.82-4.66.62-10.88-.87-14.74-1.26-3.26-3.47-7.58-9.62-14.34-4.44-4.88-9.26-10.17-15.1-13.53-13.79-7.91-34.24-5.63-48.72,4.62-17.06,12.09-20,31.17-20.54,34.83a181.18,181.18,0,0,0-2.64,29.28,156.68,156.68,0,0,0,3.7,36.48c1.69,7.29,2.86,12.15,6.07,18.2,2.2,4.14,7.07,13.31,16.63,19.19,16.42,10.09,35.49,3.57,38.8,2.37,24.24-8.82,31-33.39,32.15-39.6C1654.77,545.94,1657,535.26,1646.35,535.33Z" transform="translate(-313.44 -25.56)"/><path class="cls-2" d="M1204.44,624.24l0,.13c5.68-4.67,8.45-13.43,8.51-20.45q.15-69.66.3-139.32c0-18.64,0-18.64-17.82-19.58l-3,.1v-.07l-.11.08h0c-3.64,3.41-2.51,7.95-2.51,12q-.06,70.2.12,140.41a33.13,33.13,0,0,1-2.27,6.93c-1.75,3.83-3.34,7.32-6.84,8.64a9.35,9.35,0,0,1-6.18,0c-4.23-.46-6.1,1.2-6.59,1.67-2.24,2.21-1.83,5.82-1.29,10.46a36.06,36.06,0,0,0,2,8.42,38.45,38.45,0,0,0,20-.08,36.71,36.71,0,0,0,9-3.87" transform="translate(-313.44 -25.56)"/><path class="cls-2" d="M1349.33,565.9c-10.62-3.71-9.71-11.88-9.75-20-.09-17.3.41-34.62-.21-51.9-.36-10.16,2.91-20.53-1.32-30.51.4-3.08-.11-5.86-2.61-8,.12-2.21-.5-4.07-2.58-5.22a2116.78,2116.78,0,0,0-5.12-5.31c-.09-1.61-1.14-2.13-2.61-2.17-9-3.92-18-8.41-28.11-8.33-26.7.22-46.07,7.5-49.36,38.5-.73,6.83,1.54,9.75,8.07,10.06,8.7.41,14.23-1.24,15.14-12.28,1.11-13.35,9.92-18.66,25-17.81,11.31.64,19.23,3.61,19.14,18.11-.09,15.8-9.52,25.12-28.77,28.88-39.23,7.67-47.62,25.26-39.71,62.69,2.45,11.62,10.71,18.26,22.1,21.18,14.51,3.71,28,1.53,40.39-6.87,3.51-2.39,7-6.71,10.93-1.68,5.64,7.12,13.49,5.59,20.8,6.48,4.46.76,9.88,3.82,11.86-3.11C1353.9,574.06,1354.38,567.67,1349.33,565.9Zm-32.56-26.18c0,.13,0,.26,0,.39C1316.74,540,1316.76,539.85,1316.77,539.72Zm-23.69,27.14c-10.15,1.23-20-.16-23.95-12.18-4.53-13.76.17-27,10.31-33.48,9.55-6.09,20.84-7,30.67-12.26,6.57-3.54,6,3.17,6.42,7.24v0q-1.1,17.13-2.18,34.28C1309.72,559.15,1302.91,565.68,1293.08,566.86Z" transform="translate(-313.44 -25.56)"/><path class="cls-2" d="M1780.44,492.72c-.65-8.45-2-25.84-14.81-38.46-12.5-12.28-29-13.25-35.59-13.14-4.49.08-19.93.57-32.13,11.83-10.09,9.32-13,21.41-15.63,32.33a108.75,108.75,0,0,0-2.4,16.32,205.46,205.46,0,0,0,.86,42.71c.45,4.82,2.9,25.16,19.64,37.81a45,45,0,0,0,15.9,7.7c12.92,3.21,26.6,0,39.64-7.62h0c12.9-8.59,17.91-21.52,19.92-26.92,3-8,3.59-14.42,4.36-22.72.57-6.19.54-12.21.48-24.24C1780.63,499.41,1780.61,495,1780.44,492.72Zm-25.92,57.36c-.31,1.88-2.33,13.19-12,18.85a23.82,23.82,0,0,1-9.16,3.07c-14,1.45-23.91-7.46-27.15-21.55-5.36-23.32-5-46.31-.18-69.91,3.55-17.39,11.85-20.07,14.2-21.17,8.54-4,20-1.87,26.43,4.44,3.53,3.45,4.89,8.13,7.61,17.49a110.26,110.26,0,0,1,3.68,17.83C1760.4,520,1755.9,543.37,1754.52,550.08Z" transform="translate(-313.44 -25.56)"/><circle class="cls-2" cx="1194.17" cy="548.54" r="14.02"/><circle class="cls-2" cx="886.86" cy="396.86" r="14.02"/><circle class="cls-2" cx="688.51" cy="396.86" r="14.02"/></svg>