<svg id="Layer_1" data-name="Layer 1" xmlns="http://www.w3.org/2000/svg" viewBox="0 0 1080 1080"><defs><style>.cls-1{fill:#7aaed5;}.cls-2{fill:#0a428c;}.cls-3{fill:#fff;}</style></defs><path class="cls-1" d="M540.47,492.9H523.92a4.62,4.62,0,0,0-4.62,4.62v45.12A9.59,9.59,0,0,1,510,552.3a9.42,9.42,0,0,1-9.52-9.42V497.52a4.62,4.62,0,0,0-4.63-4.62h-14a4.62,4.62,0,0,0-4.62,4.62v45.36a9.42,9.42,0,0,1-18.84,0V497.52a4.62,4.62,0,0,0-4.63-4.62H439.07a4.62,4.62,0,0,0-4.63,4.62V534a20.36,20.36,0,0,1-20.37,20.36v-18.2c0-23.48-18.73-43-42.21-43.23a42.68,42.68,0,0,0-43.16,42.69v18.74A18.3,18.3,0,0,1,310.37,536V497.52a4.62,4.62,0,0,0-4.63-4.62H291.06a4.62,4.62,0,0,0-4.62,4.62v72.81a19.08,19.08,0,0,1-1.77,8.19c-2.88,6.12-10.22,15.38-28.31,16.16a2.63,2.63,0,0,0-2.51,2.62V612a4.62,4.62,0,0,0,4.63,4.62h6.79a52.83,52.83,0,0,0,32.6-11c7.23-5.66,13.51-13.69,13.51-24.51H420.13a34.83,34.83,0,0,0,17.43-4.67l5.11-3,6.8,3.6a34.76,34.76,0,0,0,16.26,4A42.27,42.27,0,0,0,489.3,574l1.35.83a42.26,42.26,0,0,0,22.27,6.34h5.15a27,27,0,0,0,27-27v-56.6A4.62,4.62,0,0,0,540.47,492.9Zm-167.8,64.15a19.69,19.69,0,1,1,19.69-19.68A19.69,19.69,0,0,1,372.67,557.05Z"/><rect class="cls-1" x="249.1" y="458.96" width="23.76" height="122.54" rx="4.63"/><path class="cls-1" d="M238.57,497.52v40.53a43.44,43.44,0,0,1-43.44,43.44h0a43.41,43.41,0,0,1-43.28-39.66c-.11-1.25-.17-2.51-.17-3.78V533.8a19.54,19.54,0,0,0-38.92,2.54v40.53a4.63,4.63,0,0,1-4.63,4.62H93.78a4.62,4.62,0,0,1-4.63-4.62V536.34A43.3,43.3,0,0,1,132.3,492.9a42.59,42.59,0,0,1,19.37,4.62,4.63,4.63,0,0,1,4.63-4.62h14.51a4.63,4.63,0,0,1,4.63,4.62v40.53a19.68,19.68,0,0,0,19.68,19.68h0a19.68,19.68,0,0,0,19.68-19.68V497.52a4.62,4.62,0,0,1,4.63-4.62H234A4.62,4.62,0,0,1,238.57,497.52Z"/><path class="cls-1" d="M240.91,471.46a13.24,13.24,0,1,1-12.1-12.12A13.25,13.25,0,0,1,240.91,471.46Z"/><path class="cls-1" d="M385.87,471.46a13.24,13.24,0,1,1-12.11-12.12A13.26,13.26,0,0,1,385.87,471.46Z"/><path class="cls-2" d="M990.82,540.17q0,71.75,0,143.51c0,11.83-3.62,22.22-11.76,30.84a42.12,42.12,0,0,1-30.62,13.6c-.82,0-1.64,0-2.45,0q-143.43,0-286.85,0c-13.37,0-24.67-4.53-33.66-14.44a42.45,42.45,0,0,1-11-27.73c0-.44,0-.88,0-1.32q0-144.64,0-289.29a43.23,43.23,0,0,1,43.32-43.55q144.83,0,289.67,0a43.13,43.13,0,0,1,43,38,57.82,57.82,0,0,1,.3,7.33Q990.84,468.69,990.82,540.17ZM855,475.82a6.16,6.16,0,0,1,0,.66c-.78,19-18.08,35.63-37.12,35.67-7.65,0-15.31,0-23,.08a10.58,10.58,0,0,0-4.67,1.1,6.81,6.81,0,0,0-3.27,7.89,7,7,0,0,0,7,5.44c5.08.09,10.16.06,15.25,0,4.38,0,8.82.24,13.15-.31,27.79-3.54,47.1-25.52,47.21-53.53q.06-16.38,0-32.77a11.89,11.89,0,0,0-.35-3,7,7,0,0,0-8.46-5c-3.75.9-5.71,3.73-5.78,8.37-.3,19.83-17.85,37.07-37.61,37q-14-.07-28,0a53.51,53.51,0,0,0-22.63,4.93c-19.46,9.06-32.45,28.7-30.78,53a8.48,8.48,0,0,0,1,3.38,7,7,0,0,0,7.89,3.28,7.15,7.15,0,0,0,5.53-7.17c.08-2.7-.12-5.41.11-8.09A38.42,38.42,0,0,1,787.58,492c9.35-.18,18.71-.13,28.06-.08a52.37,52.37,0,0,0,31.91-10.07C850.07,480,852.4,477.91,855,475.82ZM750.34,604.44c.16-1.51.28-2.76.44-4,2.28-17.67,19.05-32.43,36.83-32.44,7.91,0,15.82,0,23.73,0a7.31,7.31,0,0,0,7.52-7.13,7.18,7.18,0,0,0-7.29-7.32c-8.66-.09-17.36-.55-26,.12-20.73,1.6-35.8,12-44.92,30.73-3.74,7.68-5,15.94-4.85,24.51.2,10.35,0,20.71,0,31.07,0,4,1.84,6.92,4.88,7.9,5.3,1.72,9.69-1.79,9.74-7.79.16-20,17.49-37.26,37.44-37.3,9.16,0,18.33,0,27.49,0,27,0,48.72-17.92,53.46-44.51a72.89,72.89,0,0,0,.72-13.31,7,7,0,0,0-6.92-7.08,7.15,7.15,0,0,0-7.33,6.22,45.15,45.15,0,0,0-.25,6.38c-.13,20.15-16.87,37.26-37.07,37.68-9.41.19-18.82.13-28.24.09a52.35,52.35,0,0,0-31.75,10C755.42,600.1,753.05,602.23,750.34,604.44Z"/><path class="cls-3" d="M855,475.82c-2.56,2.09-4.89,4.18-7.41,6a52.37,52.37,0,0,1-31.91,10.07c-9.35-.05-18.71-.1-28.06.08a38.42,38.42,0,0,0-37.06,34.74c-.23,2.68,0,5.39-.11,8.09a7.15,7.15,0,0,1-5.53,7.17,7,7,0,0,1-7.89-3.28,8.48,8.48,0,0,1-1-3.38c-1.67-24.32,11.32-44,30.78-53a53.51,53.51,0,0,1,22.63-4.93q14,0,28,0c19.76.1,37.31-17.14,37.61-37,.07-4.64,2-7.47,5.78-8.37a7,7,0,0,1,8.46,5,11.89,11.89,0,0,1,.35,3q0,16.4,0,32.77c-.11,28-19.42,50-47.21,53.53-4.33.55-8.77.27-13.15.31-5.09,0-10.17.07-15.25,0a7,7,0,0,1-7-5.44,6.81,6.81,0,0,1,3.27-7.89,10.58,10.58,0,0,1,4.67-1.1c7.66-.12,15.32-.06,23-.08,19,0,36.34-16.67,37.12-35.67A6.16,6.16,0,0,0,855,475.82Z"/><path class="cls-3" d="M750.34,604.44c2.71-2.21,5.08-4.34,7.65-6.2a52.35,52.35,0,0,1,31.75-10c9.42,0,18.83.1,28.24-.09,20.2-.42,36.94-17.53,37.07-37.68a45.15,45.15,0,0,1,.25-6.38,7.15,7.15,0,0,1,7.33-6.22,7,7,0,0,1,6.92,7.08,72.89,72.89,0,0,1-.72,13.31c-4.74,26.59-26.44,44.55-53.46,44.51-9.16,0-18.33,0-27.49,0-20,0-37.28,17.32-37.44,37.3-.05,6-4.44,9.51-9.74,7.79-3-1-4.88-3.93-4.88-7.9,0-10.36.22-20.72,0-31.07-.16-8.57,1.11-16.83,4.85-24.51,9.12-18.69,24.19-29.13,44.92-30.73,8.6-.67,17.3-.21,26-.12a7.18,7.18,0,0,1,7.29,7.32,7.31,7.31,0,0,1-7.52,7.13c-7.91.07-15.82,0-23.73,0-17.78,0-34.55,14.77-36.83,32.44C750.62,601.68,750.5,602.93,750.34,604.44Z"/></svg>