<svg id="Layer_7" data-name="Layer 7" xmlns="http://www.w3.org/2000/svg" viewBox="0 0 2163.72 410.75"><defs><style>.cls-1{fill:#fc4238;}</style></defs><title>snapptrip</title><path class="cls-1" d="M1782.91,412.23c0-42.55,1.46-85.17-.62-127.62-1.14-23.21,6.79-29.73,28.22-26.75,10.65,1.48,21.67.19,32.5.61,4,.16,11.11.95,11.47,2.61,6.41,29.59,21.07,10.34,32.74,5.65,52.43-21.05,108.46-.28,135.47,51.49,23.41,44.87,19.52,88.39-11.33,128.37-29.66,38.45-68.87,50.23-115.58,37.16-2.4-.67-4.87-1.16-7.17-2.06-30-11.65-30-11.67-30,22.42,0,47.22-14,61.06-57.7,61.41-15,.12-18.4-4.33-18.2-18.13C1783.34,502.35,1782.94,457.29,1782.91,412.23Zm175.71-38.87c-.14-28.46-22.23-50.05-51.12-50-26,.08-48.34,23-48.58,49.87-.25,27.49,23.61,50.8,51.28,50.08A49.46,49.46,0,0,0,1958.62,373.36Z" transform="translate(-46.6 -161.43)"/><path class="cls-1" d="M1048.42,418.53c0-43.35.48-86.71-.28-130-.24-13.24,4-19.62,16.92-16.41,20.42,5.05,44.58-12.46,62.17,11,4,5.39,8.42-2.24,12.25-4.45,68.36-39.41,148.27,10.81,154.67,88.48,6,73.29-52.71,128.55-115.68,121.13a84.29,84.29,0,0,1-39.23-14.57c-12.32-8.57-16.16-3.83-16,9,.12,13.33.32,26.67.27,40-.12,31.67-33.4,56.22-64.17,47.91-12.57-3.4-11-12.9-11-21.92q-.1-65.06,0-130.1Zm120.23,3.75c30.43.25,48.45-16.81,48.87-46.25.37-26.1-20.34-47.08-47-47.6-28-.55-48.37,20-48.12,48.38Q1122.84,422,1168.65,422.28Z" transform="translate(-46.6 -161.43)"/><path class="cls-1" d="M865.61,469.52c0,17.39.68,33.86-.13,50.26-1.76,35.47-30.35,57.23-64.83,51.14-9.69-1.7-9.71-7.47-9.73-14.15q-.24-136.08-.27-272.18c0-4.72-.75-13.06,5-12,23.16,4.16,49.47-12.92,69.69,9.52,7.09,7.88,10.45-.4,14-2.77C936,241.63,1030.16,281,1033,364.66c2.7,79-43.16,128.76-114.31,123.1C900,486.27,884.81,475.37,865.61,469.52Zm44.88-46.07c28.77.24,46.66-17.56,46.72-46.5.06-28.57-18.1-47.49-46-48-28.35-.47-49.28,20.08-49.26,48.37C862,404.28,881.89,423.2,910.49,423.45Z" transform="translate(-46.6 -161.43)"/><path class="cls-1" d="M175.38,165.69c15.16-.59,39.54,7.54,64,15.78,13.09,4.4,16.76,10.44,10.58,23.68-11,23.62-27.4,33-54,29.1-21.35-3.17-47.62-10.17-54.65,17.65-7.78,30.75,23.05,30.49,41.62,38.52,6.07,2.62,12.86,3.52,19.14,5.72,52.39,18.33,69.26,41.37,68.37,93.1-.77,44.79-27.51,80-73.16,92.91-49.88,14.13-97.06,4.64-141.86-20.08-9.13-5-11.3-10.74-5.94-20.09,7-12.26,13.91-24.71,19.45-37.68,5.43-12.69,11-10.93,20.61-4.12,17,12,35.4,21.91,57.35,21.95,18.25,0,33.61-5.95,38.71-24.51,5.4-19.66-9.08-28.95-24.29-35.17s-31.54-10.15-47-16C57.3,325,38,275.06,65.57,220.18,85.94,179.63,120.94,165.1,175.38,165.69Z" transform="translate(-46.6 -161.43)"/><path class="cls-1" d="M766.63,364.24c0,22.49-.36,45,.11,67.47.4,19.07-5,35.38-23.61,42.55-17.37,6.69-36.35,18.84-52.19-4.5-5.17-7.61-10.15,1-14.26,3.2-46.72,24.72-94.17,16.91-128.55-21.64C517.53,417,513,352.06,538.58,313.76c28.14-42.16,78.46-59,124.37-41.3,6.08,2.35,11.41,6.59,17.26,9.63,2.77,1.44,8.34,3.41,8.58,3,14.73-27.49,39.81-7.35,59.27-12.81,15.84-4.45,19.49,5.06,18.92,19.53-1,24.12-.26,48.31-.26,72.47ZM645,423.35c34.32-.6,48.31-14,48-45.85-.32-32.07-18.18-50.1-48.57-49-28.2,1-44.65,18.92-44.3,48.26C600.47,408.15,615.58,423.86,645,423.35Z" transform="translate(-46.6 -161.43)"/><path class="cls-1" d="M1352.3,363.47c0-35.06-.6-70.14.26-105.18.36-14.69-3.35-20.34-19.36-20.53-51.5-.59-50.47-1.32-51.53-53.36-.4-19.71,6-23.32,24.23-22.92q85.11,1.85,170.29,0c19-.42,25.12,5.87,24.57,24.09-.9,29.72-18.76,51.51-48.77,51.78-18.82.18-21.79,7.63-21.77,23.68.09,60.05-.7,120.1-1.54,180.14-.51,36.56-32.47,58.61-67.76,48-10.74-3.22-8.46-11-8.5-18C1352.2,435.27,1352.32,399.37,1352.3,363.47Z" transform="translate(-46.6 -161.43)"/><path class="cls-1" d="M285.59,374.73c0-28.39.34-56.78-.16-85.16-.21-12.32,3.24-18.78,17-17.89,13.3.87,26.7.17,40.06.18,2.5,0,6.62-.85,7.28.28,18,30.87,34.2,1.66,49.68-2.55,63.17-17.16,106.25,13.75,106.88,79,.28,28.38.68,56.78,0,85.15-.78,33-32.85,56.07-64.45,48.09-11.86-3-10.23-11.56-10.3-19.54-.34-35.06-.76-70.12-.36-105.18.24-21.58-9.79-33.09-31-34-20.81-.85-38.22,13.92-39.09,33.69-1,23.34.28,46.78-.77,70.11C358.7,463.85,341,480.67,306.16,482c-14.92.57-21.24-4.13-20.85-19.63.73-29.21.21-58.44.21-87.66Z" transform="translate(-46.6 -161.43)"/><path class="cls-1" d="M1578,290.28c19-11.88,31.33-28.13,51.71-29.75,6.67-.54,15.77-3.77,16.54,4.84a328.71,328.71,0,0,1,.16,57.25c-.92,10.69-10.08,4.61-15.92,3.47-36.79-7.2-52.63,6.31-53.22,43.84-.41,26.53,3.35,53.25-2.54,79.58-6.85,30.65-36.1,47.85-66,39.67-9.79-2.67-10.25-9.53-10.27-17.22-.1-64.94,0-129.89-.36-194.84-.07-13.37,4.43-20.39,18.94-19.09,9.09.82,18.45,1.34,27.44.13C1566.84,255.16,1582.11,259.86,1578,290.28Z" transform="translate(-46.6 -161.43)"/><path class="cls-1" d="M1676.38,370.89c0-31.7.81-63.43-.38-95.08-.5-13.22,3-17.4,16.2-18.09,61.08-3.2,61.07-3.56,61.06,56.82,0,39.24.08,78.48-.08,117.72-.17,42.06-18.7,59-60.16,57.32-12.06-.49-16.2-4.53-15.87-16.1.49-17.48.07-35,0-52.5q0-25.05,0-50.09Z" transform="translate(-46.6 -161.43)"/><path class="cls-1" d="M2170.93,173.31c44.06-.22,44-.25,33.9,38.54-10.4,40-20.44,80-31,120-7,26.58-56.52,48.07-78.58,34.16-8.48-5.35-4.27-13-2.36-20.19,12.23-45.58,26-90.85,35.91-136.93C2134.71,181.52,2144.66,165.82,2170.93,173.31Z" transform="translate(-46.6 -161.43)"/><path class="cls-1" d="M2067.59,440.49c.31-25.08,21.67-46.59,45.91-46.23,24.65.36,46,21.86,45.94,46.26-.07,25.8-22,47.64-47.55,47.36C2087.38,487.62,2067.27,466.1,2067.59,440.49Z" transform="translate(-46.6 -161.43)"/><path class="cls-1" d="M1677.56,198.84c.13-19.35,17.2-36.71,36.49-37.1,18.43-.36,37.72,17.69,38.27,35.82.63,21.25-16,39.21-36.81,39.69C1694.92,237.72,1677.42,220,1677.56,198.84Z" transform="translate(-46.6 -161.43)"/></svg>